<svg width="5075" height="1903" viewBox="0 0 5075 1903" fill="none" xmlns="http://www.w3.org/2000/svg">
<path d="M4232.11 493.62L4334.22 547.6H4890.94V273.18L4833.4 196.76V492.24H4234.91L4232.11 493.62Z" fill="#E4EFFD"/>
<path d="M4258.88 221.891H4727.95V467.101H4258.88V221.891Z" fill="#CBE1FD"/>
<path d="M4753.09 196.76V492.24H4233.74V196.76H4753.09ZM4258.88 467.1H4727.95V221.89H4258.88V467.1Z" fill="white" stroke="#88BED7" stroke-width="5" stroke-miterlimit="10"/>
<path d="M4753.09 196.76H4833.4V492.24H4753.09V196.76Z" fill="white" stroke="#88BED7" stroke-width="5" stroke-miterlimit="10"/>
<path d="M4569.68 276.749V446.849C4569.72 449.546 4568.69 452.151 4566.82 454.091C4564.94 456.031 4562.38 457.149 4559.68 457.199H4303.68C4300.98 457.151 4298.41 456.035 4296.54 454.094C4294.66 452.153 4293.63 449.547 4293.68 446.849V276.749C4293.63 274.049 4294.66 271.442 4296.54 269.5C4298.41 267.558 4300.98 266.439 4303.68 266.389H4559.68C4562.38 266.441 4564.95 267.561 4566.82 269.503C4568.69 271.445 4569.72 274.05 4569.68 276.749V276.749Z" fill="white"/>
<path d="M4569.68 276.498V446.598C4569.72 449.296 4568.69 451.9 4566.82 453.841C4564.94 455.781 4562.38 456.898 4559.68 456.948H4303.68C4300.98 456.901 4298.41 455.784 4296.54 453.844C4294.66 451.903 4293.63 449.297 4293.68 446.598V276.498C4293.63 273.8 4294.66 271.194 4296.54 269.253C4298.41 267.313 4300.98 266.196 4303.68 266.148H4559.68C4562.38 266.198 4564.94 267.316 4566.82 269.256C4568.69 271.196 4569.72 273.801 4569.68 276.498Z" stroke="#88BED7" stroke-width="5" stroke-miterlimit="10"/>
<path d="M4569.68 276.498V446.598C4569.72 449.296 4568.69 451.9 4566.82 453.841C4564.94 455.781 4562.38 456.898 4559.68 456.948H4537.16C4534.46 456.898 4531.9 455.781 4530.02 453.841C4528.15 451.9 4527.12 449.296 4527.16 446.598V276.498C4527.12 273.801 4528.15 271.196 4530.02 269.256C4531.9 267.316 4534.46 266.198 4537.16 266.148H4559.66C4562.36 266.193 4564.93 267.308 4566.81 269.249C4568.69 271.19 4569.72 273.797 4569.68 276.498V276.498Z" stroke="#88BED7" stroke-width="5" stroke-miterlimit="10"/>
<path d="M4451.36 347.92V368.53C4451.36 369.233 4451.08 369.907 4450.58 370.404C4450.09 370.901 4449.41 371.18 4448.71 371.18H4432.23C4431.53 371.18 4430.86 371.458 4430.36 371.953C4429.87 372.448 4429.59 373.12 4429.59 373.82V390.3C4429.59 391.003 4429.31 391.677 4428.81 392.174C4428.32 392.671 4427.64 392.95 4426.94 392.95H4406.34C4405.64 392.95 4404.96 392.671 4404.47 392.174C4403.97 391.677 4403.69 391.003 4403.69 390.3V373.82C4403.69 373.119 4403.41 372.447 4402.91 371.952C4402.41 371.458 4401.74 371.18 4401.04 371.18H4384.57C4383.87 371.18 4383.19 370.901 4382.7 370.404C4382.2 369.907 4381.92 369.233 4381.92 368.53V347.92C4381.92 347.572 4381.99 347.228 4382.12 346.907C4382.26 346.586 4382.45 346.295 4382.7 346.049C4382.94 345.804 4383.24 345.61 4383.56 345.478C4383.88 345.346 4384.22 345.278 4384.57 345.28H4401C4401.7 345.28 4402.38 345.001 4402.87 344.504C4403.37 344.007 4403.65 343.333 4403.65 342.63V326.15C4403.65 325.802 4403.72 325.458 4403.85 325.137C4403.99 324.816 4404.18 324.525 4404.43 324.279C4404.67 324.034 4404.97 323.84 4405.29 323.708C4405.61 323.576 4405.95 323.508 4406.3 323.51H4426.9C4427.6 323.51 4428.27 323.788 4428.77 324.282C4429.27 324.777 4429.55 325.449 4429.55 326.15V342.63C4429.55 343.331 4429.83 344.003 4430.32 344.5C4430.82 344.997 4431.49 345.277 4432.19 345.28H4448.71C4449.41 345.28 4450.08 345.558 4450.58 346.052C4451.08 346.547 4451.36 347.219 4451.36 347.92V347.92Z" fill="#88BED7"/>
<path d="M4549.04 266.389V456.969" stroke="#88BED7" stroke-width="5" stroke-miterlimit="10"/>
<path d="M4448.93 242.049H4401.21C4397.5 242.049 4393.94 243.524 4391.31 246.149C4388.68 248.775 4387.21 252.336 4387.21 256.049V266.199H4462.89V255.999C4462.88 252.301 4461.4 248.759 4458.79 246.146C4456.17 243.532 4452.63 242.059 4448.93 242.049Z" stroke="#88BED7" stroke-width="5" stroke-miterlimit="10"/>
<path d="M4638.82 404.451H4594.36V444.451C4594.36 447.872 4595.72 451.154 4598.14 453.573C4600.56 455.992 4603.84 457.351 4607.26 457.351H4625.93C4629.35 457.351 4632.63 455.992 4635.05 453.573C4637.47 451.154 4638.83 447.872 4638.83 444.451V404.451H4638.82Z" fill="white" stroke="#E6E6E6" stroke-width="5" stroke-miterlimit="10"/>
<path d="M4594.77 390.201H4638.25C4640.61 390.201 4642.52 392.113 4642.52 394.471V400.141C4642.52 402.499 4640.61 404.411 4638.25 404.411H4594.77C4592.41 404.411 4590.5 402.499 4590.5 400.141V394.471C4590.5 392.113 4592.41 390.201 4594.77 390.201Z" fill="#E6E6E6"/>
<path d="M4635.62 394.501C4635.62 394.109 4635.94 393.791 4636.33 393.791C4636.72 393.791 4637.04 394.109 4637.04 394.501V400.001C4637.04 400.393 4636.72 400.711 4636.33 400.711C4635.94 400.711 4635.62 400.393 4635.62 400.001V394.501Z" fill="white"/>
<path d="M4629.02 394.501C4629.02 394.109 4629.34 393.791 4629.73 393.791C4630.12 393.791 4630.44 394.109 4630.44 394.501V400.001C4630.44 400.393 4630.12 400.711 4629.73 400.711C4629.34 400.711 4629.02 400.393 4629.02 400.001V394.501Z" fill="white"/>
<path d="M4622.41 394.501C4622.41 394.109 4622.73 393.791 4623.12 393.791C4623.51 393.791 4623.83 394.109 4623.83 394.501V400.001C4623.83 400.393 4623.51 400.711 4623.12 400.711C4622.73 400.711 4622.41 400.393 4622.41 400.001V394.501Z" fill="white"/>
<path d="M4615.8 394.501C4615.8 394.109 4616.12 393.791 4616.51 393.791C4616.9 393.791 4617.22 394.109 4617.22 394.501V400.001C4617.22 400.393 4616.9 400.711 4616.51 400.711C4616.12 400.711 4615.8 400.393 4615.8 400.001V394.501Z" fill="white"/>
<path d="M4609.19 394.501C4609.19 394.109 4609.51 393.791 4609.9 393.791C4610.29 393.791 4610.61 394.109 4610.61 394.501V400.001C4610.61 400.393 4610.29 400.711 4609.9 400.711C4609.51 400.711 4609.19 400.393 4609.19 400.001V394.501Z" fill="white"/>
<path d="M4602.58 394.501C4602.58 394.109 4602.9 393.791 4603.29 393.791C4603.68 393.791 4604 394.109 4604 394.501V400.001C4604 400.393 4603.68 400.711 4603.29 400.711C4602.9 400.711 4602.58 400.393 4602.58 400.001V394.501Z" fill="white"/>
<path d="M4595.98 394.501C4595.98 394.109 4596.3 393.791 4596.69 393.791C4597.08 393.791 4597.4 394.109 4597.4 394.501V400.001C4597.4 400.393 4597.08 400.711 4596.69 400.711C4596.3 400.711 4595.98 400.393 4595.98 400.001V394.501Z" fill="white"/>
<path d="M4703.33 404.451H4658.87V444.451C4658.87 447.872 4660.23 451.154 4662.65 453.573C4665.07 455.992 4668.35 457.351 4671.77 457.351H4690.43C4693.85 457.351 4697.13 455.992 4699.55 453.573C4701.97 451.154 4703.33 447.872 4703.33 444.451V404.451Z" fill="white" stroke="#88BED7" stroke-width="5" stroke-miterlimit="10"/>
<path d="M4659.28 390.201H4702.76C4705.12 390.201 4707.03 392.113 4707.03 394.471V400.141C4707.03 402.499 4705.12 404.411 4702.76 404.411H4659.28C4656.92 404.411 4655.01 402.499 4655.01 400.141V394.471C4655.01 392.113 4656.92 390.201 4659.28 390.201Z" fill="#88BED7"/>
<path d="M4700.13 394.501C4700.13 394.109 4700.45 393.791 4700.84 393.791C4701.23 393.791 4701.55 394.109 4701.55 394.501V400.001C4701.55 400.393 4701.23 400.711 4700.84 400.711C4700.45 400.711 4700.13 400.393 4700.13 400.001V394.501Z" fill="white"/>
<path d="M4693.52 394.501C4693.52 394.109 4693.84 393.791 4694.23 393.791C4694.62 393.791 4694.94 394.109 4694.94 394.501V400.001C4694.94 400.393 4694.62 400.711 4694.23 400.711C4693.84 400.711 4693.52 400.393 4693.52 400.001V394.501Z" fill="white"/>
<path d="M4686.91 394.501C4686.91 394.109 4687.23 393.791 4687.62 393.791C4688.01 393.791 4688.33 394.109 4688.33 394.501V400.001C4688.33 400.393 4688.01 400.711 4687.62 400.711C4687.23 400.711 4686.91 400.393 4686.91 400.001V394.501Z" fill="white"/>
<path d="M4680.3 394.501C4680.3 394.109 4680.62 393.791 4681.01 393.791C4681.4 393.791 4681.72 394.109 4681.72 394.501V400.001C4681.72 400.393 4681.4 400.711 4681.01 400.711C4680.62 400.711 4680.3 400.393 4680.3 400.001V394.501Z" fill="white"/>
<path d="M4673.7 394.501C4673.7 394.109 4674.02 393.791 4674.41 393.791C4674.8 393.791 4675.12 394.109 4675.12 394.501V400.001C4675.12 400.393 4674.8 400.711 4674.41 400.711C4674.02 400.711 4673.7 400.393 4673.7 400.001V394.501Z" fill="white"/>
<path d="M4667.09 394.501C4667.09 394.109 4667.41 393.791 4667.8 393.791C4668.19 393.791 4668.51 394.109 4668.51 394.501V400.001C4668.51 400.393 4668.19 400.711 4667.8 400.711C4667.41 400.711 4667.09 400.393 4667.09 400.001V394.501Z" fill="white"/>
<path d="M4660.48 394.501C4660.48 394.109 4660.8 393.791 4661.19 393.791C4661.58 393.791 4661.9 394.109 4661.9 394.501V400.001C4661.9 400.393 4661.58 400.711 4661.19 400.711C4660.8 400.711 4660.48 400.393 4660.48 400.001V394.501Z" fill="white"/>
<path d="M4684.8 332.73H4640.34V372.73C4640.34 376.152 4641.7 379.433 4644.12 381.852C4646.54 384.271 4649.82 385.63 4653.24 385.63H4671.9C4675.32 385.63 4678.6 384.271 4681.02 381.852C4683.44 379.433 4684.8 376.152 4684.8 372.73V332.73V332.73Z" fill="white" stroke="#E6E6E6" stroke-width="5" stroke-miterlimit="10"/>
<path d="M4640.75 318.48H4684.23C4686.59 318.48 4688.5 320.392 4688.5 322.75V328.42C4688.5 330.779 4686.59 332.69 4684.23 332.69H4640.75C4638.39 332.69 4636.48 330.779 4636.48 328.42V322.75C4636.48 320.392 4638.39 318.48 4640.75 318.48Z" fill="#E6E6E6"/>
<path d="M4681.6 322.78C4681.6 322.388 4681.92 322.07 4682.31 322.07C4682.7 322.07 4683.02 322.388 4683.02 322.78V328.28C4683.02 328.672 4682.7 328.99 4682.31 328.99C4681.92 328.99 4681.6 328.672 4681.6 328.28V322.78Z" fill="white"/>
<path d="M4674.99 322.78C4674.99 322.388 4675.31 322.07 4675.7 322.07C4676.09 322.07 4676.41 322.388 4676.41 322.78V328.28C4676.41 328.672 4676.09 328.99 4675.7 328.99C4675.31 328.99 4674.99 328.672 4674.99 328.28V322.78Z" fill="white"/>
<path d="M4668.39 322.78C4668.39 322.388 4668.71 322.07 4669.1 322.07C4669.49 322.07 4669.81 322.388 4669.81 322.78V328.28C4669.81 328.672 4669.49 328.99 4669.1 328.99C4668.71 328.99 4668.39 328.672 4668.39 328.28V322.78Z" fill="white"/>
<path d="M4661.78 322.78C4661.78 322.388 4662.1 322.07 4662.49 322.07C4662.88 322.07 4663.2 322.388 4663.2 322.78V328.28C4663.2 328.672 4662.88 328.99 4662.49 328.99C4662.1 328.99 4661.78 328.672 4661.78 328.28V322.78Z" fill="white"/>
<path d="M4655.17 322.78C4655.17 322.388 4655.49 322.07 4655.88 322.07C4656.27 322.07 4656.59 322.388 4656.59 322.78V328.28C4656.59 328.672 4656.27 328.99 4655.88 328.99C4655.49 328.99 4655.17 328.672 4655.17 328.28V322.78Z" fill="white"/>
<path d="M4648.56 322.78C4648.56 322.388 4648.88 322.07 4649.27 322.07C4649.66 322.07 4649.98 322.388 4649.98 322.78V328.28C4649.98 328.672 4649.66 328.99 4649.27 328.99C4648.88 328.99 4648.56 328.672 4648.56 328.28V322.78Z" fill="white"/>
<path d="M4641.95 322.78C4641.95 322.388 4642.27 322.07 4642.66 322.07C4643.05 322.07 4643.37 322.388 4643.37 322.78V328.28C4643.37 328.672 4643.05 328.99 4642.66 328.99C4642.27 328.99 4641.95 328.672 4641.95 328.28V322.78Z" fill="white"/>
<g opacity="0.5">
<path opacity="0.5" d="M4301.03 228.029L4551.34 460.969H4600.44L4350.13 228.029H4301.03Z" fill="white"/>
<path opacity="0.5" d="M4651.47 460.97H4721.04V228.02H4401.16L4651.47 460.97Z" fill="white"/>
</g>
<path d="M4671.26 978.591V934.971H4358.55V940.371L4671.26 978.591Z" fill="#CBE1FD"/>
<path d="M4714.67 1644.75V1656.49C4714.67 1660.32 4716.19 1663.98 4718.9 1666.69C4721.61 1669.39 4725.27 1670.91 4729.1 1670.91V1670.91C4737.77 1670.91 4746.08 1674.36 4752.21 1680.49C4758.34 1686.62 4761.79 1694.93 4761.79 1703.6V1706.76" stroke="#88BED7" stroke-width="5" stroke-miterlimit="10"/>
<path d="M4726 1731.78C4711.57 1731.78 4699.88 1720.09 4699.88 1705.66C4699.88 1691.24 4711.57 1679.54 4726 1679.54C4740.43 1679.54 4752.12 1691.24 4752.12 1705.66C4752.12 1720.09 4740.43 1731.78 4726 1731.78Z" stroke="#EFAF00" stroke-width="5" stroke-miterlimit="10"/>
<path d="M4570.26 1644.75V1656.49C4570.26 1660.31 4571.78 1663.98 4574.49 1666.68C4577.19 1669.39 4580.86 1670.91 4584.68 1670.91C4593.35 1670.91 4601.66 1674.35 4607.8 1680.48C4613.93 1686.62 4617.37 1694.93 4617.37 1703.6V1706.76" stroke="#88BED7" stroke-width="5" stroke-miterlimit="10"/>
<path d="M4581.58 1731.78C4567.15 1731.78 4555.46 1720.09 4555.46 1705.66C4555.46 1691.24 4567.15 1679.54 4581.58 1679.54C4596.01 1679.54 4607.7 1691.24 4607.7 1705.66C4607.7 1720.09 4596.01 1731.78 4581.58 1731.78Z" stroke="#EFAF00" stroke-width="5" stroke-miterlimit="10"/>
<path d="M4307 1644.75V1656.49C4307 1660.31 4305.48 1663.98 4302.77 1666.68C4300.07 1669.39 4296.4 1670.91 4292.58 1670.91C4283.91 1670.91 4275.6 1674.35 4269.46 1680.48C4263.33 1686.62 4259.89 1694.93 4259.89 1703.6V1706.76" stroke="#88BED7" stroke-width="5" stroke-miterlimit="10"/>
<path d="M4295.69 1731.78C4281.26 1731.78 4269.57 1720.09 4269.57 1705.66C4269.57 1691.24 4281.26 1679.54 4295.69 1679.54C4310.12 1679.54 4321.81 1691.24 4321.81 1705.66C4321.81 1720.09 4310.12 1731.78 4295.69 1731.78Z" stroke="#EFAF00" stroke-width="5" stroke-miterlimit="10"/>
<path d="M4433.6 978.592H4753.35C4774.67 978.592 4791.95 995.874 4791.95 1017.19V1605.25C4791.95 1626.57 4774.67 1643.85 4753.35 1643.85H4433.6C4412.28 1643.85 4395 1626.57 4395 1605.25V1017.19C4395 995.874 4412.28 978.592 4433.6 978.592Z" fill="white" stroke="#88BED7" stroke-width="5" stroke-miterlimit="10"/>
<path d="M4276.42 978.592H4596.17C4617.49 978.592 4634.77 995.874 4634.77 1017.19V1605.25C4634.77 1626.57 4617.49 1643.85 4596.17 1643.85H4276.42C4255.1 1643.85 4237.82 1626.57 4237.82 1605.25V1017.19C4237.82 995.874 4255.1 978.592 4276.42 978.592Z" fill="white" stroke="#88BED7" stroke-width="5" stroke-miterlimit="10"/>
<path d="M4268.91 1004.24H4602.56C4612.08 1004.24 4619.8 1011.96 4619.8 1021.48V1176.49C4619.8 1186.01 4612.08 1193.73 4602.56 1193.73H4268.91C4259.39 1193.73 4251.67 1186.01 4251.67 1176.49V1021.48C4251.67 1011.96 4259.39 1004.24 4268.91 1004.24Z" fill="white" stroke="#88BED7" stroke-width="5" stroke-miterlimit="10"/>
<path d="M4387.4 1097.72H4502.11C4505.96 1097.72 4509.08 1100.84 4509.08 1104.69V1105.66C4509.08 1109.51 4505.96 1112.63 4502.11 1112.63H4387.4C4383.55 1112.63 4380.43 1109.51 4380.43 1105.66V1104.69C4380.43 1100.84 4383.55 1097.72 4387.4 1097.72Z" fill="#E4EFFD"/>
<path d="M4378.41 1091.32H4493.2C4497.03 1091.32 4500.13 1094.42 4500.13 1098.25C4500.13 1102.07 4497.03 1105.17 4493.2 1105.17H4378.41C4374.58 1105.17 4371.48 1102.07 4371.48 1098.25C4371.48 1094.42 4374.58 1091.32 4378.41 1091.32Z" stroke="#EFAF00" stroke-width="5" stroke-miterlimit="10"/>
<path d="M4268.91 1215.01H4602.56C4612.08 1215.01 4619.8 1222.73 4619.8 1232.25V1387.26C4619.8 1396.78 4612.08 1404.5 4602.56 1404.5H4268.91C4259.39 1404.5 4251.67 1396.78 4251.67 1387.26V1232.25C4251.67 1222.73 4259.39 1215.01 4268.91 1215.01Z" fill="white" stroke="#88BED7" stroke-width="5" stroke-miterlimit="10"/>
<path d="M4387.4 1308.48H4502.11C4505.96 1308.48 4509.08 1311.6 4509.08 1315.45V1316.42C4509.08 1320.27 4505.96 1323.39 4502.11 1323.39H4387.4C4383.55 1323.39 4380.43 1320.27 4380.43 1316.42V1315.45C4380.43 1311.6 4383.55 1308.48 4387.4 1308.48Z" fill="#E4EFFD"/>
<path d="M4378.41 1302.08H4493.2C4497.03 1302.08 4500.13 1305.18 4500.13 1309.01C4500.13 1312.83 4497.03 1315.93 4493.2 1315.93H4378.41C4374.58 1315.93 4371.48 1312.83 4371.48 1309.01C4371.48 1305.18 4374.58 1302.08 4378.41 1302.08Z" stroke="#EFAF00" stroke-width="5" stroke-miterlimit="10"/>
<path d="M4268.91 1425.77H4602.56C4612.08 1425.77 4619.8 1433.49 4619.8 1443.01V1598.02C4619.8 1607.54 4612.08 1615.26 4602.56 1615.26H4268.91C4259.39 1615.26 4251.67 1607.54 4251.67 1598.02V1443.01C4251.67 1433.49 4259.39 1425.77 4268.91 1425.77Z" fill="white" stroke="#88BED7" stroke-width="5" stroke-miterlimit="10"/>
<path d="M4387.4 1519.28H4502.11C4505.96 1519.28 4509.08 1522.4 4509.08 1526.25V1527.22C4509.08 1531.07 4505.96 1534.19 4502.11 1534.19H4387.4C4383.55 1534.19 4380.43 1531.07 4380.43 1527.22V1526.25C4380.43 1522.4 4383.55 1519.28 4387.4 1519.28Z" fill="#E4EFFD"/>
<path d="M4378.41 1512.85H4493.2C4497.03 1512.85 4500.13 1515.95 4500.13 1519.78C4500.13 1523.6 4497.03 1526.7 4493.2 1526.7H4378.41C4374.58 1526.7 4371.48 1523.6 4371.48 1519.78C4371.48 1515.95 4374.58 1512.85 4378.41 1512.85Z" stroke="#EFAF00" stroke-width="5" stroke-miterlimit="10"/>
<path d="M4358.55 934.971H4671.26V978.581H4358.55V934.971Z" stroke="#88BED7" stroke-width="5" stroke-miterlimit="10"/>
<path d="M4739 658.881H4611.85V935.001H4739C4742.84 935.001 4746.53 933.474 4749.25 930.757C4751.96 928.039 4753.49 924.354 4753.49 920.511V673.371C4753.49 669.528 4751.96 665.842 4749.25 663.125C4746.53 660.407 4742.84 658.881 4739 658.881Z" fill="white" stroke="#88BED7" stroke-width="5" stroke-miterlimit="10"/>
<path d="M4295.65 935H4614.91C4619.8 934.998 4624.56 933.449 4628.51 930.574C4632.46 927.7 4635.4 923.648 4636.91 919L4715.91 675.33C4716.52 673.448 4716.68 671.447 4716.37 669.491C4716.06 667.536 4715.29 665.681 4714.13 664.079C4712.97 662.478 4711.44 661.174 4709.68 660.276C4707.91 659.377 4705.96 658.909 4703.98 658.91H4384.69C4379.8 658.911 4375.04 660.46 4371.09 663.334C4367.14 666.209 4364.2 670.261 4362.69 674.91L4283.69 918.58C4283.08 920.465 4282.92 922.468 4283.23 924.425C4283.55 926.382 4284.32 928.237 4285.48 929.839C4286.65 931.441 4288.18 932.744 4289.95 933.641C4291.71 934.538 4293.67 935.004 4295.65 935V935Z" fill="white" stroke="#88BED7" stroke-width="5" stroke-miterlimit="10"/>
<path d="M4416.75 854.162H4618.5C4621.59 854.162 4624.6 853.183 4627.09 851.367C4629.59 849.551 4631.45 846.99 4632.4 844.052L4682.31 690.052C4682.69 688.861 4682.79 687.597 4682.6 686.362C4682.4 685.126 4681.91 683.955 4681.18 682.944C4680.44 681.933 4679.47 681.11 4678.36 680.543C4677.24 679.976 4676.01 679.681 4674.76 679.682H4473C4469.91 679.682 4466.9 680.66 4464.41 682.476C4461.91 684.293 4460.05 686.854 4459.1 689.792L4409.19 843.792C4408.8 844.983 4408.71 846.248 4408.9 847.484C4409.1 848.72 4409.59 849.892 4410.33 850.903C4411.06 851.915 4412.03 852.737 4413.15 853.304C4414.26 853.87 4415.5 854.164 4416.75 854.162V854.162Z" fill="#E6E6E6"/>
<path d="M4474.96 854.841L4490.58 806.641H4420.11" stroke="white" stroke-width="2" stroke-miterlimit="10"/>
<path d="M4365.41 855.12H4366.86C4377.19 855.12 4387.52 848.47 4392.44 838.64C4399.58 824.37 4391.52 809.74 4376.52 809.74H4375.07C4364.74 809.74 4354.41 816.39 4349.5 826.22C4342.35 840.49 4350.41 855.12 4365.41 855.12Z" fill="#CBE1FD"/>
<path d="M4358.13 852.511H4359.58C4369.91 852.511 4380.24 845.861 4385.16 836.031C4392.3 821.761 4384.24 807.131 4369.24 807.131H4367.79C4357.46 807.131 4347.13 813.781 4342.21 823.611C4335.07 837.881 4343.13 852.511 4358.13 852.511Z" stroke="#EFAF00" stroke-width="4" stroke-miterlimit="10"/>
<path d="M4414.54 699.751H4437.73C4438.09 699.753 4438.43 699.64 4438.72 699.429C4439.01 699.219 4439.22 698.922 4439.33 698.581L4445.07 680.881C4445.11 680.745 4445.13 680.599 4445.1 680.457C4445.08 680.315 4445.02 680.18 4444.94 680.064C4444.85 679.948 4444.74 679.854 4444.61 679.789C4444.49 679.724 4444.34 679.691 4444.2 679.691H4421C4420.64 679.689 4420.3 679.801 4420.01 680.009C4419.72 680.218 4419.51 680.513 4419.4 680.851L4413.66 698.551C4413.62 698.69 4413.61 698.836 4413.63 698.98C4413.65 699.123 4413.71 699.258 4413.79 699.376C4413.88 699.493 4413.99 699.588 4414.12 699.653C4414.25 699.718 4414.39 699.752 4414.54 699.751V699.751Z" fill="#CBE1FD"/>
<path d="M4377.95 699.751H4401.15C4401.51 699.751 4401.85 699.638 4402.14 699.428C4402.43 699.217 4402.64 698.921 4402.75 698.581L4408.48 680.881C4408.53 680.745 4408.54 680.6 4408.52 680.458C4408.5 680.316 4408.44 680.181 4408.36 680.064C4408.27 679.948 4408.16 679.853 4408.03 679.788C4407.91 679.723 4407.76 679.69 4407.62 679.691H4384.42C4384.06 679.689 4383.72 679.801 4383.43 680.009C4383.14 680.218 4382.93 680.513 4382.82 680.851L4377.08 698.551C4377.04 698.689 4377.03 698.835 4377.05 698.977C4377.07 699.12 4377.13 699.255 4377.21 699.371C4377.3 699.488 4377.41 699.584 4377.54 699.65C4377.66 699.716 4377.81 699.75 4377.95 699.751Z" fill="#CBE1FD"/>
<path d="M4405.28 730.001H4428.47C4428.83 730.003 4429.17 729.89 4429.46 729.679C4429.75 729.469 4429.96 729.172 4430.07 728.831L4435.81 711.131C4435.85 710.995 4435.87 710.849 4435.84 710.707C4435.82 710.565 4435.76 710.43 4435.68 710.314C4435.59 710.198 4435.48 710.104 4435.35 710.039C4435.23 709.974 4435.08 709.941 4434.94 709.941H4411.75C4411.39 709.941 4411.05 710.053 4410.76 710.261C4410.47 710.47 4410.26 710.764 4410.15 711.101L4404.41 728.801C4404.37 728.939 4404.36 729.085 4404.38 729.227C4404.4 729.37 4404.46 729.505 4404.54 729.621C4404.63 729.738 4404.74 729.833 4404.87 729.899C4404.99 729.965 4405.14 730 4405.28 730.001V730.001Z" fill="#CBE1FD"/>
<path d="M4368.69 730.001H4391.89C4392.25 730.001 4392.59 729.888 4392.88 729.677C4393.17 729.467 4393.38 729.171 4393.49 728.831L4399.23 711.131C4399.27 710.995 4399.29 710.849 4399.26 710.707C4399.24 710.565 4399.18 710.43 4399.1 710.314C4399.01 710.198 4398.9 710.104 4398.77 710.039C4398.65 709.974 4398.5 709.941 4398.36 709.941H4375.16C4374.81 709.942 4374.46 710.055 4374.17 710.263C4373.89 710.471 4373.67 710.765 4373.56 711.101L4367.83 728.801C4367.78 728.938 4367.77 729.084 4367.79 729.226C4367.81 729.369 4367.87 729.504 4367.95 729.622C4368.04 729.739 4368.15 729.834 4368.28 729.9C4368.4 729.966 4368.55 730.001 4368.69 730.001Z" fill="#CBE1FD"/>
<path d="M4394.2 762.781H4417.4C4417.75 762.78 4418.1 762.667 4418.39 762.459C4418.67 762.251 4418.89 761.958 4419 761.621L4424.74 743.911C4424.78 743.774 4424.8 743.628 4424.77 743.486C4424.75 743.344 4424.69 743.21 4424.61 743.094C4424.52 742.978 4424.41 742.883 4424.28 742.818C4424.16 742.754 4424.01 742.72 4423.87 742.721H4400.67C4400.32 742.722 4399.97 742.834 4399.68 743.042C4399.4 743.251 4399.18 743.544 4399.07 743.881L4393.34 761.591C4393.29 761.727 4393.28 761.872 4393.3 762.014C4393.32 762.156 4393.38 762.291 4393.46 762.408C4393.55 762.524 4393.66 762.619 4393.79 762.684C4393.91 762.749 4394.06 762.782 4394.2 762.781V762.781Z" fill="#CBE1FD"/>
<path d="M4357.62 762.781H4380.81C4381.17 762.781 4381.51 762.669 4381.8 762.461C4382.09 762.252 4382.3 761.958 4382.41 761.621L4388.15 743.911C4388.19 743.774 4388.21 743.628 4388.18 743.486C4388.16 743.344 4388.1 743.21 4388.02 743.094C4387.93 742.978 4387.82 742.883 4387.69 742.818C4387.57 742.754 4387.42 742.72 4387.28 742.721H4364.09C4363.73 742.72 4363.39 742.832 4363.1 743.041C4362.81 743.249 4362.6 743.543 4362.49 743.881L4356.75 761.591C4356.71 761.728 4356.69 761.873 4356.72 762.015C4356.74 762.157 4356.8 762.292 4356.88 762.408C4356.97 762.524 4357.08 762.618 4357.21 762.683C4357.33 762.748 4357.48 762.781 4357.62 762.781V762.781Z" fill="#CBE1FD"/>
<path d="M4383 796.931H4406.24C4406.6 796.933 4406.94 796.82 4407.23 796.609C4407.52 796.399 4407.73 796.101 4407.84 795.761L4413.58 778.061C4413.62 777.924 4413.64 777.779 4413.61 777.637C4413.59 777.495 4413.53 777.36 4413.45 777.244C4413.36 777.128 4413.25 777.034 4413.12 776.969C4413 776.904 4412.85 776.87 4412.71 776.871H4389.52C4389.16 776.869 4388.82 776.98 4388.53 777.189C4388.24 777.398 4388.03 777.693 4387.92 778.031L4382.18 795.731C4382.14 795.865 4382.13 796.006 4382.15 796.145C4382.17 796.284 4382.22 796.416 4382.3 796.532C4382.38 796.648 4382.48 796.744 4382.6 796.813C4382.72 796.882 4382.86 796.923 4383 796.931V796.931Z" fill="#CBE1FD"/>
<path d="M4346.46 796.931H4369.66C4370.02 796.931 4370.36 796.818 4370.65 796.607C4370.94 796.397 4371.15 796.101 4371.26 795.761L4377 778.061C4377.05 777.925 4377.06 777.78 4377.04 777.638C4377.02 777.495 4376.96 777.36 4376.88 777.244C4376.79 777.127 4376.68 777.033 4376.55 776.968C4376.43 776.903 4376.28 776.87 4376.14 776.871H4352.94C4352.58 776.869 4352.24 776.98 4351.95 777.189C4351.66 777.398 4351.45 777.693 4351.34 778.031L4345.6 795.731C4345.56 795.868 4345.55 796.013 4345.57 796.154C4345.59 796.296 4345.65 796.431 4345.73 796.547C4345.81 796.664 4345.92 796.759 4346.05 796.826C4346.18 796.893 4346.32 796.929 4346.46 796.931Z" fill="#CBE1FD"/>
<path d="M4673.35 721.572H4653.35L4648.24 703.602L4637.06 737.902L4636.75 720.752L4611.95 720.602L4606.84 703.602L4595.66 737.902L4595.35 720.752L4570.55 720.602L4565.44 703.602L4554.26 737.902L4553.95 720.752L4529.15 720.602L4524.04 703.602L4512.86 737.902L4512.55 720.752L4488.71 720.602L4483.6 703.602L4472.42 737.902L4472.12 720.752L4449.24 720.602" stroke="white" stroke-width="2" stroke-miterlimit="10"/>
<path d="M4435.07 760.092L4442.77 772.492L4447.5 765.462V780.352L4457.57 760.092L4460.46 780.352L4470.23 760.092L4477.92 772.492L4482.66 765.462V780.352L4492.73 760.092L4502.32 780.352L4512.09 760.092L4519.79 772.492L4524.53 765.462V780.352L4534.59 760.092L4537.48 780.352L4547.25 760.092L4554.94 772.492L4559.68 765.462V780.352L4569.75 760.092V772.492L4576.48 765.052L4580.31 780.352L4590.07 760.092L4597.77 772.492L4602.51 765.462V780.352L4612.58 760.092L4615.46 780.352L4625.23 760.092L4632.93 772.492L4637.67 765.462V780.352L4647.73 760.092L4658.49 769.512" stroke="white" stroke-width="2" stroke-linejoin="round"/>
<path d="M4472.1 816.762H4459.79C4459.33 816.779 4458.88 816.945 4458.52 817.235C4458.16 817.525 4457.91 817.924 4457.79 818.372L4455.32 829.072" stroke="white" stroke-width="2" stroke-miterlimit="10" stroke-linecap="round"/>
<path d="M4454.6 832.291L4451.81 844.381" stroke="white" stroke-width="2" stroke-miterlimit="10" stroke-linecap="round"/>
<path d="M4435.9 816.761H4448.21C4448.41 816.752 4448.61 816.791 4448.79 816.875C4448.97 816.959 4449.13 817.085 4449.25 817.243C4449.37 817.401 4449.45 817.586 4449.49 817.782C4449.52 817.979 4449.51 818.181 4449.45 818.371L4446.98 829.071" stroke="white" stroke-width="2" stroke-miterlimit="10" stroke-linecap="round"/>
<path d="M4431 844.591H4441.78C4442.24 844.575 4442.69 844.41 4443.05 844.119C4443.41 843.829 4443.67 843.43 4443.78 842.981L4446.25 832.291C4446.31 832.101 4446.32 831.899 4446.29 831.702C4446.25 831.506 4446.17 831.321 4446.05 831.163C4445.93 831.005 4445.77 830.879 4445.59 830.795C4445.41 830.711 4445.21 830.672 4445.01 830.681H4434.2C4433.77 830.698 4433.35 830.854 4433.02 831.127C4432.68 831.399 4432.45 831.772 4432.34 832.191L4429.83 843.081C4429.77 843.26 4429.76 843.45 4429.79 843.635C4429.83 843.82 4429.9 843.995 4430.02 844.143C4430.13 844.292 4430.28 844.41 4430.45 844.488C4430.62 844.566 4430.81 844.601 4431 844.591Z" stroke="white" stroke-width="2" stroke-miterlimit="10" stroke-linecap="round"/>
<path d="M4537.71 815.911H4550C4550.2 815.902 4550.4 815.941 4550.58 816.025C4550.76 816.109 4550.92 816.236 4551.04 816.394C4551.16 816.552 4551.24 816.737 4551.28 816.933C4551.31 817.129 4551.3 817.331 4551.24 817.522L4548.77 828.212" stroke="white" stroke-width="2" stroke-miterlimit="10" stroke-linecap="round"/>
<path d="M4546.81 829.82H4536C4535.57 829.836 4535.15 829.993 4534.81 830.267C4534.47 830.541 4534.23 830.918 4534.13 831.34L4531.62 842.22C4531.56 842.399 4531.55 842.589 4531.58 842.773C4531.62 842.958 4531.69 843.132 4531.81 843.281C4531.92 843.43 4532.07 843.549 4532.24 843.629C4532.41 843.709 4532.59 843.747 4532.78 843.74H4545.52" stroke="white" stroke-width="2" stroke-miterlimit="10" stroke-linecap="round"/>
<path d="M4582.26 816.762L4579.35 829.072" stroke="white" stroke-width="2" stroke-miterlimit="10" stroke-linecap="round"/>
<path d="M4578.61 832.291L4575.82 844.381" stroke="white" stroke-width="2" stroke-miterlimit="10" stroke-linecap="round"/>
<path d="M4571 829.071L4573.47 818.371C4573.53 818.181 4573.54 817.979 4573.51 817.782C4573.47 817.586 4573.39 817.401 4573.27 817.243C4573.15 817.085 4572.99 816.959 4572.81 816.875C4572.63 816.791 4572.43 816.752 4572.23 816.761H4560.88" stroke="white" stroke-width="2" stroke-miterlimit="10" stroke-linecap="round"/>
<path d="M4557 828.152L4559 818.372C4559.12 816.762 4560.31 816.762 4561.2 816.762H4572.54" stroke="white" stroke-width="2" stroke-miterlimit="10" stroke-linecap="round"/>
<path d="M4556.35 832.191L4553.84 843.081C4553.78 843.26 4553.77 843.449 4553.8 843.633C4553.84 843.817 4553.91 843.991 4554.03 844.139C4554.14 844.288 4554.29 844.406 4554.46 844.485C4554.63 844.564 4554.81 844.6 4555 844.591H4565.79C4566.25 844.575 4566.7 844.41 4567.06 844.12C4567.42 843.829 4567.68 843.43 4567.79 842.981L4570.26 832.291" stroke="white" stroke-width="2" stroke-miterlimit="10" stroke-linecap="round"/>
<path d="M4490.58 806.641H4645.32" stroke="white" stroke-width="2" stroke-miterlimit="10"/>
<path d="M336.9 411.9C336.9 411.9 388.3 815.8 431.8 936" stroke="#88BED7" stroke-width="5" stroke-miterlimit="10"/>
<path d="M390.7 440.1C390.7 440.1 397 494.7 352.1 515.4" stroke="#88BED7" stroke-width="5" stroke-miterlimit="10"/>
<path d="M267.2 523.301C267.2 523.301 308.2 626.101 375.1 663.801" stroke="#88BED7" stroke-width="5" stroke-miterlimit="10"/>
<path d="M230.9 543.201C230.9 543.201 256.6 570.401 288.5 566.501" stroke="#88BED7" stroke-width="5" stroke-miterlimit="10"/>
<path d="M307.2 451.801C307.2 451.801 323 484.301 346.5 485.101" stroke="#88BED7" stroke-width="5" stroke-miterlimit="10"/>
<path d="M329.9 414.9C354.753 414.9 374.9 394.753 374.9 369.9C374.9 345.048 354.753 324.9 329.9 324.9C305.047 324.9 284.9 345.048 284.9 369.9C284.9 394.753 305.047 414.9 329.9 414.9Z" fill="white" stroke="#FFBA00" stroke-width="6" stroke-miterlimit="10"/>
<path d="M390.4 448.301C398.574 448.301 405.2 441.675 405.2 433.501C405.2 425.327 398.574 418.701 390.4 418.701C382.226 418.701 375.6 425.327 375.6 433.501C375.6 441.675 382.226 448.301 390.4 448.301Z" fill="white" stroke="#FFBA00" stroke-width="6" stroke-miterlimit="10"/>
<path d="M304 460.1C311.18 460.1 317 454.279 317 447.1C317 439.92 311.18 434.1 304 434.1C296.82 434.1 291 439.92 291 447.1C291 454.279 296.82 460.1 304 460.1Z" fill="white" stroke="#FFBA00" stroke-width="6" stroke-miterlimit="10"/>
<path d="M228.1 552.7C234.617 552.7 239.9 547.417 239.9 540.9C239.9 534.383 234.617 529.1 228.1 529.1C221.583 529.1 216.3 534.383 216.3 540.9C216.3 547.417 221.583 552.7 228.1 552.7Z" fill="white" stroke="#FFBA00" stroke-width="6" stroke-miterlimit="10"/>
<path d="M14.8 920.901C21.3169 920.901 26.6 915.618 26.6 909.101C26.6 902.584 21.3169 897.301 14.8 897.301C8.28303 897.301 3 902.584 3 909.101C3 915.618 8.28303 920.901 14.8 920.901Z" fill="white" stroke="#FFBA00" stroke-width="6" stroke-miterlimit="10"/>
<path d="M261.6 525.8C276.843 525.8 289.2 513.443 289.2 498.2C289.2 482.957 276.843 470.6 261.6 470.6C246.357 470.6 234 482.957 234 498.2C234 513.443 246.357 525.8 261.6 525.8Z" fill="white" stroke="#FFBA00" stroke-width="6" stroke-miterlimit="10"/>
<path d="M59.3002 1009C74.5432 1009 86.9002 996.644 86.9002 981.401C86.9002 966.158 74.5432 953.801 59.3002 953.801C44.0571 953.801 31.7002 966.158 31.7002 981.401C31.7002 996.644 44.0571 1009 59.3002 1009Z" fill="white" stroke="#FFBA00" stroke-width="6" stroke-miterlimit="10"/>
<path d="M3024 237.4C3024 237.4 2957.8 226.7 2972.8 340.9C2987.8 455.1 2866.5 428.3 2837.7 478.1C2822.3 504.7 2863.2 594.8 2771.9 668.3C2692.7 731.9 2529.7 678.4 2527.8 831.6L2530.6 601.8C2530.6 601.8 2523.6 496.6 2618.3 485.2C2760.3 468.1 2697.7 374.5 2741.8 330.4C2790.1 282 2849.9 325.6 2880.7 295.1C2903.2 272.6 2941.5 182.5 3024 237.4Z" fill="#FFBF00"/>
<path d="M3023.8 237.3V237.4C3023.3 237.3 3021.8 237.2 3019.7 237.2C3009.7 235 2982.4 230.7 2963.3 243C2952.5 249.9 2945.8 261.2 2943.4 276.4C2938.5 308.2 2933.3 329.3 2921.3 343.1C2908.9 357.3 2889.7 363.2 2857.2 362.7C2825.9 362.3 2801.1 370.8 2785.6 387.3C2771.3 402.5 2764.8 424.5 2766.8 451C2768.6 474.8 2766.9 509.4 2748.6 539.3C2728.7 572 2693.8 592 2644.9 598.8C2618.4 602.5 2595.9 610.3 2577.9 622C2563.6 631.4 2552.1 643.2 2543.8 657.3C2529.6 681.2 2529.5 703.3 2529.5 703.5H2529.2L2529.5 678.4C2531.7 671.3 2535 663.3 2539.9 655C2548.6 640.4 2560.5 628 2575.4 618.3C2593.9 606.2 2617.1 598.1 2644.2 594.4C2755.1 579 2765.7 498.2 2762.2 451.4C2760.1 423.6 2767 400.4 2782.2 384.3C2798.6 366.9 2824.5 357.9 2857.1 358.3C2888.2 358.7 2906.4 353.3 2917.8 340.2C2929.1 327.3 2934 306.8 2938.8 275.8C2941.4 259.2 2948.7 246.9 2960.7 239.3C2968.1 234.6 2981.3 229.3 3002.4 230.5C3006.9 230.8 3010.9 231.3 3014.3 231.8C3017.5 233.3 3020.6 235.2 3023.8 237.3Z" fill="white"/>
<path d="M128.5 798.801L68.8002 806.601C69.0002 808.301 69.3002 810.001 69.5002 811.701C92.4002 971.501 230.4 1089.5 391.8 1088.9L441.8 1088.7C441.8 1088.7 451.3 964.301 366.1 831.401L331.9 875.501L341 795.901C286.2 724.801 201.8 654.201 72.1002 601.801C72.1002 601.801 58.5002 674.001 64.5002 764.401L128.5 798.801Z" fill="white" stroke="#EFAF00" stroke-width="5" stroke-miterlimit="10"/>
<path d="M69.8003 807.9L276.2 923.6" stroke="#EFAF00" stroke-width="5" stroke-miterlimit="10"/>
<path d="M205.6 831.301L200.7 667.201" stroke="#EFAF00" stroke-width="5" stroke-miterlimit="10"/>
<path d="M72.2002 601.801C72.2002 601.801 196.1 890.701 441.8 1088.7" stroke="#EFAF00" stroke-width="5" stroke-miterlimit="10"/>
<path d="M2635.4 323.898C2635.4 323.898 2581.1 410.798 2517.9 500.498" stroke="#88BED7" stroke-width="5" stroke-miterlimit="10"/>
<path d="M2576.8 325.898C2576.8 325.898 2548.1 372.898 2575.9 413.698" stroke="#88BED7" stroke-width="5" stroke-miterlimit="10"/>
<path d="M2647.1 394.9C2631.4 399.4 2611.5 400.6 2591.6 390" stroke="#88BED7" stroke-width="5" stroke-miterlimit="10"/>
<path d="M2655.4 348.199C2680.25 348.199 2700.4 328.052 2700.4 303.199C2700.4 278.346 2680.25 258.199 2655.4 258.199C2630.55 258.199 2610.4 278.346 2610.4 303.199C2610.4 328.052 2630.55 348.199 2655.4 348.199Z" fill="white" stroke="#FFBA00" stroke-width="6" stroke-miterlimit="10"/>
<path d="M2900.4 617.1C2921.11 617.1 2937.9 600.31 2937.9 579.6C2937.9 558.889 2921.11 542.1 2900.4 542.1C2879.69 542.1 2862.9 558.889 2862.9 579.6C2862.9 600.31 2879.69 617.1 2900.4 617.1Z" fill="white" stroke="#FFBA00" stroke-width="6" stroke-miterlimit="10"/>
<path d="M2575.6 331.799C2583.77 331.799 2590.4 325.173 2590.4 316.999C2590.4 308.825 2583.77 302.199 2575.6 302.199C2567.43 302.199 2560.8 308.825 2560.8 316.999C2560.8 325.173 2567.43 331.799 2575.6 331.799Z" fill="white" stroke="#FFBA00" stroke-width="6" stroke-miterlimit="10"/>
<path d="M2655.9 406.799C2665.29 406.799 2672.9 399.188 2672.9 389.799C2672.9 380.41 2665.29 372.799 2655.9 372.799C2646.51 372.799 2638.9 380.41 2638.9 389.799C2638.9 399.188 2646.51 406.799 2655.9 406.799Z" fill="white" stroke="#FFBA00" stroke-width="6" stroke-miterlimit="10"/>
<path d="M2857.2 657.1C2864.38 657.1 2870.2 651.279 2870.2 644.1C2870.2 636.92 2864.38 631.1 2857.2 631.1C2850.02 631.1 2844.2 636.92 2844.2 644.1C2844.2 651.279 2850.02 657.1 2857.2 657.1Z" fill="white" stroke="#FFBA00" stroke-width="6" stroke-miterlimit="10"/>
<path d="M1636.6 146.4V443.1C1636.6 504.3 1591.4 553.8 1535.6 553.8C1479.8 553.8 1434.6 504.2 1434.6 443.1V146.4" stroke="#E6E6E6" stroke-width="5" stroke-miterlimit="10"/>
<path d="M2519.1 248.001V1535.2C2519.1 1578.5 2485.2 1613.5 2443.3 1613.5H506C464.1 1613.5 430.2 1578.4 430.2 1535.2V248.001C430.2 204.701 464.1 169.701 506 169.701H2443.3C2485.2 169.701 2519.1 204.701 2519.1 248.001Z" fill="white"/>
<path d="M2380.4 276.101V1563.3C2380.4 1606.6 2346.5 1641.6 2304.6 1641.6H526.6C484.7 1641.6 450.8 1606.5 450.8 1563.3V276.101C450.8 232.801 484.7 197.801 526.6 197.801H2304.6C2346.5 197.801 2380.4 232.801 2380.4 276.101Z" fill="#E4EFFD"/>
<path d="M2541.4 276.101V1563.3C2541.4 1606.6 2507.5 1641.6 2465.6 1641.6H2294.5C2252.6 1641.6 2218.7 1606.5 2218.7 1563.3V276.101C2218.7 232.801 2252.6 197.801 2294.5 197.801H2465.6C2507.4 197.801 2541.4 232.801 2541.4 276.101Z" fill="#CBE1FD"/>
<path d="M2519.1 246.101V1533.3C2519.1 1576.6 2485.2 1611.6 2443.3 1611.6H506C464.1 1611.6 430.2 1576.5 430.2 1533.3V246.101C430.2 202.801 464.1 167.801 506 167.801H2443.3C2485.2 167.801 2519.1 202.801 2519.1 246.101Z" stroke="#88BED7" stroke-width="5" stroke-miterlimit="10"/>
<path d="M2519.1 246.101V1533.3C2519.1 1576.6 2485.2 1611.6 2443.3 1611.6H2272.9C2231 1611.6 2197.1 1576.5 2197.1 1533.3V246.101C2197.1 202.801 2231 167.801 2272.9 167.801H2443.3C2485.2 167.801 2519.1 202.801 2519.1 246.101Z" stroke="#88BED7" stroke-width="5" stroke-miterlimit="10"/>
<path d="M1623.7 786.6V942.5C1623.7 953.6 1614.7 962.5 1603.7 962.5H1479C1467.9 962.5 1459 971.5 1459 982.5V1107.2C1459 1118.3 1450 1127.2 1439 1127.2H1283.1C1272 1127.2 1263.1 1118.2 1263.1 1107.2V982.5C1263.1 971.4 1254.1 962.5 1243.1 962.5H1118.4C1107.3 962.5 1098.4 953.5 1098.4 942.5V786.6C1098.4 775.5 1107.4 766.6 1118.4 766.6H1243.1C1254.2 766.6 1263.1 757.6 1263.1 746.6V621.9C1263.1 610.8 1272.1 601.9 1283.1 601.9H1439C1450.1 601.9 1459 610.9 1459 621.9V746.6C1459 757.7 1468 766.6 1479 766.6H1603.7C1614.8 766.6 1623.7 775.5 1623.7 786.6Z" fill="white" stroke="#88BED7" stroke-width="5" stroke-miterlimit="10"/>
<path d="M2362.9 169.701V1611.8" stroke="#88BED7" stroke-width="5" stroke-miterlimit="10"/>
<path d="M1636.6 146.4C1636.6 70.2004 1698.4 8.40039 1774.6 8.40039H1787.9C1788.9 8.40039 1789.8 8.40039 1790.8 8.40039C1833.6 9.30039 1873.1 31.8003 1896.7 67.6003L1925.2 110.8" stroke="#E6E6E6" stroke-width="5" stroke-miterlimit="10"/>
<path d="M2176.8 717.5C2136.1 742.4 2083.8 733.7 2054.9 697.4L1870.9 465.8C1780.5 350.5 1813.9 180.7 1942.3 102.2C2070.7 23.7003 2237.1 71.5003 2298.5 204.5L2420.7 473.8C2439.9 516.1 2423.7 566.6 2383 591.5" stroke="#EFAF00" stroke-width="6" stroke-miterlimit="10"/>
<path d="M2223.9 716.201L2196.9 732.701C2188.7 737.701 2178 735.101 2173 726.901L2166.8 716.801C2161.8 708.601 2164.4 697.901 2172.6 692.901L2199.6 676.401C2207.8 671.401 2218.5 674.001 2223.5 682.201L2229.7 692.301C2234.7 700.501 2232.1 711.201 2223.9 716.201Z" fill="white" stroke="#EFAF00" stroke-width="6" stroke-miterlimit="10"/>
<path d="M2387.8 616.101L2360.8 632.601C2352.6 637.601 2341.9 635.001 2336.9 626.801L2330.7 616.701C2325.7 608.501 2328.3 597.801 2336.5 592.801L2363.5 576.301C2371.7 571.301 2382.4 573.901 2387.4 582.101L2393.6 592.201C2398.6 600.401 2396 611.101 2387.8 616.101Z" fill="white" stroke="#EFAF00" stroke-width="6" stroke-miterlimit="10"/>
<path d="M1893.4 494.101C1893.4 494.101 1842.1 302.501 2004.2 203.401C2163.8 105.901 2313.4 237.301 2313.4 237.301" stroke="#EFAF00" stroke-width="6" stroke-miterlimit="10"/>
<path d="M1434.6 146.4V134.4C1434.6 61.8004 1375.7 2.90039 1303.1 2.90039C1230.5 2.90039 1171.6 61.8004 1171.6 134.4V322.7" stroke="#E6E6E6" stroke-width="5" stroke-miterlimit="10"/>
<path d="M1186 508.701C1234.44 508.701 1273.7 469.436 1273.7 421.001C1273.7 372.565 1234.44 333.301 1186 333.301C1137.56 333.301 1098.3 372.565 1098.3 421.001C1098.3 469.436 1137.56 508.701 1186 508.701Z" fill="white"/>
<path d="M1173.3 498C1221.74 498 1261 458.735 1261 410.3C1261 361.864 1221.74 322.6 1173.3 322.6C1124.86 322.6 1085.6 361.864 1085.6 410.3C1085.6 458.735 1124.86 498 1173.3 498Z" stroke="#EFAF00" stroke-width="6" stroke-miterlimit="10"/>
<path d="M1173.3 468C1205.44 468 1231.5 441.943 1231.5 409.8C1231.5 377.657 1205.44 351.6 1173.3 351.6C1141.16 351.6 1115.1 377.657 1115.1 409.8C1115.1 441.943 1141.16 468 1173.3 468Z" stroke="#EFAF00" stroke-width="6" stroke-miterlimit="10"/>
<path d="M2637.3 1637.8H2545.9C2530.1 1637.8 2517.4 1625 2517.4 1609.3V1531.7H2665.8V1609.3C2665.8 1625 2653.1 1637.8 2637.3 1637.8Z" fill="#FFBF00"/>
<path d="M2621.9 1542.4H2561.4C2508.1 1542.4 2463.5 1500.6 2458.6 1446L2400.1 795.4H2783.2L2724.7 1446C2719.8 1500.6 2675.2 1542.4 2621.9 1542.4Z" fill="white" stroke="#E6E6E6" stroke-width="5" stroke-miterlimit="10"/>
<path d="M2747.4 1167.8H2436.2L2421.2 993.6H2763.4L2747.4 1167.8Z" fill="#D9D9F4"/>
<path d="M2751.4 1146.8H2432.2L2417.2 972.6H2767.4L2751.4 1146.8Z" stroke="#E6E6E6" stroke-width="5" stroke-miterlimit="10"/>
<path d="M2777.1 837.899L2591.9 887.899L2406.4 837.899L2402.4 796.199H2781.1L2777.1 837.899Z" fill="#EFAF00"/>
<path d="M2783.2 737.1H2400.1V795.4H2783.2V737.1Z" fill="white" stroke="#EFAF00" stroke-width="6" stroke-miterlimit="10"/>
<path d="M2425.7 738.1V793.1" stroke="#EFAF00" stroke-width="6" stroke-miterlimit="10"/>
<path d="M2453.4 738.1V793.1" stroke="#EFAF00" stroke-width="6" stroke-miterlimit="10"/>
<path d="M2481.1 738.1V793.1" stroke="#EFAF00" stroke-width="6" stroke-miterlimit="10"/>
<path d="M2508.7 738.1V793.1" stroke="#EFAF00" stroke-width="6" stroke-miterlimit="10"/>
<path d="M2536.4 738.1V793.1" stroke="#EFAF00" stroke-width="6" stroke-miterlimit="10"/>
<path d="M2564.1 738.1V793.1" stroke="#EFAF00" stroke-width="6" stroke-miterlimit="10"/>
<path d="M2591.8 738.1V793.1" stroke="#EFAF00" stroke-width="6" stroke-miterlimit="10"/>
<path d="M2619.5 738.1V793.1" stroke="#EFAF00" stroke-width="6" stroke-miterlimit="10"/>
<path d="M2647.1 738.1V793.1" stroke="#EFAF00" stroke-width="6" stroke-miterlimit="10"/>
<path d="M2674.8 738.1V793.1" stroke="#EFAF00" stroke-width="6" stroke-miterlimit="10"/>
<path d="M2702.5 738.1V793.1" stroke="#EFAF00" stroke-width="6" stroke-miterlimit="10"/>
<path d="M2730.2 738.1V793.1" stroke="#EFAF00" stroke-width="6" stroke-miterlimit="10"/>
<path d="M2757.9 738.1V793.1" stroke="#EFAF00" stroke-width="6" stroke-miterlimit="10"/>
<path d="M2774.7 856L2591.5 906L2408.2 856L2407.2 847.4L2591.5 897.4L2775.7 847.4L2774.7 856Z" fill="#EFAF00"/>
<path d="M3107.7 1003.9H2665.7C2642.5 1003.9 2623.7 1022.7 2623.7 1045.9V1105.5C2623.7 1128.7 2642.5 1147.5 2665.7 1147.5H3107.7C3130.9 1147.5 3149.7 1128.7 3149.7 1105.5V1045.9C3149.7 1022.7 3130.9 1003.9 3107.7 1003.9Z" fill="#E6E6E6"/>
<path d="M2686.3 1110.1C2682.3 1110.1 2679.1 1106.9 2679.1 1102.9V1047.4C2679.1 1043.4 2682.3 1040.2 2686.3 1040.2C2690.3 1040.2 2693.5 1043.4 2693.5 1047.4V1102.9C2693.5 1106.9 2690.3 1110.1 2686.3 1110.1Z" fill="#8281D8"/>
<path d="M2753.1 1110.1C2749.1 1110.1 2745.9 1106.9 2745.9 1102.9V1047.4C2745.9 1043.4 2749.1 1040.2 2753.1 1040.2C2757.1 1040.2 2760.3 1043.4 2760.3 1047.4V1102.9C2760.3 1106.9 2757.1 1110.1 2753.1 1110.1Z" fill="#8281D8"/>
<path d="M2819.9 1110.1C2815.9 1110.1 2812.7 1106.9 2812.7 1102.9V1047.4C2812.7 1043.4 2815.9 1040.2 2819.9 1040.2C2823.9 1040.2 2827.1 1043.4 2827.1 1047.4V1102.9C2827.1 1106.9 2823.9 1110.1 2819.9 1110.1Z" fill="#8281D8"/>
<path d="M2886.7 1110.1C2882.7 1110.1 2879.5 1106.9 2879.5 1102.9V1047.4C2879.5 1043.4 2882.7 1040.2 2886.7 1040.2C2890.7 1040.2 2893.9 1043.4 2893.9 1047.4V1102.9C2893.9 1106.9 2890.7 1110.1 2886.7 1110.1Z" fill="#8281D8"/>
<path d="M2953.5 1110.1C2949.5 1110.1 2946.3 1106.9 2946.3 1102.9V1047.4C2946.3 1043.4 2949.5 1040.2 2953.5 1040.2C2957.5 1040.2 2960.7 1043.4 2960.7 1047.4V1102.9C2960.7 1106.9 2957.5 1110.1 2953.5 1110.1Z" fill="#8281D8"/>
<path d="M3020.3 1110.1C3016.3 1110.1 3013.1 1106.9 3013.1 1102.9V1047.4C3013.1 1043.4 3016.3 1040.2 3020.3 1040.2C3024.3 1040.2 3027.5 1043.4 3027.5 1047.4V1102.9C3027.5 1106.9 3024.3 1110.1 3020.3 1110.1Z" fill="#8281D8"/>
<path d="M3087.1 1110.1C3083.1 1110.1 3079.9 1106.9 3079.9 1102.9V1047.4C3079.9 1043.4 3083.1 1040.2 3087.1 1040.2C3091.1 1040.2 3094.3 1043.4 3094.3 1047.4V1102.9C3094.3 1106.9 3091.1 1110.1 3087.1 1110.1Z" fill="#8281D8"/>
<path d="M2943.1 1570.5L2916.4 1511.5C2909.6 1496.5 2916.3 1478.9 2931.3 1472.1C2946.3 1465.3 2963.9 1472 2970.7 1487L2997.4 1546C3004.2 1561 2997.5 1578.6 2982.6 1585.4C2975.1 1588.8 2967 1588.8 2959.8 1586.1C2952.5 1583.4 2946.4 1578 2943.1 1570.5Z" fill="white" stroke="#EFAF00" stroke-width="5" stroke-miterlimit="10"/>
<path d="M2943.1 1570.5L2929.7 1541L2983.9 1516.5L2997.2 1546C3004 1561 2997.3 1578.6 2982.4 1585.4C2974.9 1588.8 2966.8 1588.8 2959.6 1586.1C2952.5 1583.4 2946.4 1578 2943.1 1570.5Z" fill="#EFAF00"/>
<path d="M2755 1493.4L2755.4 1558.2C2755.5 1574.6 2742.2 1588 2725.8 1588.1C2709.4 1588.2 2696 1574.9 2695.9 1558.5L2695.5 1493.7C2695.4 1477.3 2708.7 1463.9 2725.1 1463.8C2733.3 1463.8 2740.8 1467 2746.2 1472.4C2751.6 1477.8 2755 1485.2 2755 1493.4Z" fill="white" stroke="#EFAF00" stroke-width="5" stroke-miterlimit="10"/>
<path d="M2755 1493.4L2755.2 1525.8L2695.7 1526.1L2695.5 1493.7C2695.4 1477.3 2708.7 1463.9 2725.1 1463.8C2733.3 1463.8 2740.8 1467 2746.2 1472.4C2751.6 1477.8 2755 1485.2 2755 1493.4Z" fill="#EFAF00"/>
<path d="M2944 1441.7L2891.2 1479.2C2877.8 1488.7 2859.2 1485.6 2849.7 1472.2C2840.2 1458.8 2843.3 1440.2 2856.7 1430.7L2909.5 1393.2C2922.9 1383.7 2941.5 1386.8 2951 1400.2C2955.8 1406.9 2957.4 1414.9 2956.1 1422.4C2954.8 1429.9 2950.7 1436.9 2944 1441.7Z" fill="white" stroke="#EFAF00" stroke-width="5" stroke-miterlimit="10"/>
<path d="M2944 1441.7L2917.6 1460.5L2883.1 1412L2909.5 1393.2C2922.9 1383.7 2941.5 1386.8 2951 1400.2C2955.8 1406.9 2957.4 1414.9 2956.1 1422.4C2954.8 1429.9 2950.7 1436.9 2944 1441.7Z" fill="#EFAF00"/>
<path d="M2825.4 1310.5L2876.7 1350C2889.7 1360 2892.1 1378.7 2882.1 1391.7C2872.1 1404.7 2853.4 1407.1 2840.4 1397.1L2789.1 1357.6C2776.1 1347.6 2773.7 1328.9 2783.7 1315.9C2788.7 1309.4 2795.9 1305.5 2803.4 1304.5C2811 1303.6 2818.9 1305.5 2825.4 1310.5Z" fill="white" stroke="#EFAF00" stroke-width="5" stroke-miterlimit="10"/>
<path d="M2825.4 1310.5L2851.1 1330.3L2814.8 1377.5L2789.1 1357.7C2776.1 1347.7 2773.7 1329 2783.7 1316C2788.7 1309.5 2795.9 1305.6 2803.4 1304.6C2811 1303.6 2818.9 1305.5 2825.4 1310.5Z" fill="#EFAF00"/>
<path d="M3074.4 1626.8L3026.6 1670.5C3014.5 1681.6 2995.6 1680.7 2984.5 1668.6C2973.4 1656.5 2974.3 1637.6 2986.4 1626.6L3034.2 1582.9C3046.3 1571.8 3065.2 1572.7 3076.2 1584.8C3081.7 1590.9 3084.3 1598.6 3084 1606.2C3083.7 1613.8 3080.4 1621.2 3074.4 1626.8Z" fill="white" stroke="#8281D8" stroke-width="5" stroke-miterlimit="10"/>
<path d="M3074.4 1626.8L3050.5 1648.6L3010.4 1604.6L3034.3 1582.8C3046.4 1571.7 3065.3 1572.6 3076.3 1584.7C3081.8 1590.8 3084.4 1598.5 3084.1 1606.1C3083.7 1613.8 3080.4 1621.2 3074.4 1626.8Z" fill="#8281D8"/>
<path d="M2803 1531.5L2864.6 1511.6C2880.2 1506.6 2897 1515.1 2902.1 1530.8C2907.1 1546.4 2898.6 1563.2 2882.9 1568.3L2821.3 1588.2C2805.7 1593.2 2788.9 1584.7 2783.8 1569C2781.3 1561.2 2782.2 1553.1 2785.6 1546.3C2789.2 1539.5 2795.2 1534 2803 1531.5Z" fill="white" stroke="#8281D8" stroke-width="5" stroke-miterlimit="10"/>
<path d="M2803 1531.5L2833.8 1521.5L2852.1 1578.1L2821.3 1588.1C2805.7 1593.1 2788.9 1584.6 2783.8 1568.9C2781.3 1561.1 2782.2 1553 2785.6 1546.2C2789.2 1539.5 2795.2 1534 2803 1531.5Z" fill="#8281D8"/>
<path d="M2780.2 1494.4L2746.5 1439.1C2737.9 1425.1 2742.4 1406.7 2756.4 1398.2C2770.4 1389.6 2788.7 1394.1 2797.3 1408.1L2831 1463.4C2839.6 1477.4 2835.1 1495.7 2821.1 1504.3C2814.1 1508.6 2806 1509.6 2798.6 1507.8C2791.2 1506 2784.5 1501.4 2780.2 1494.4Z" fill="white" stroke="#8281D8" stroke-width="5" stroke-miterlimit="10"/>
<path d="M2780.2 1494.4L2763.3 1466.7L2814.1 1435.7L2831 1463.4C2839.6 1477.4 2835.1 1495.7 2821.1 1504.3C2814.1 1508.6 2806 1509.6 2798.6 1507.8C2791.2 1506 2784.5 1501.4 2780.2 1494.4Z" fill="#8281D8"/>
<path d="M2693.3 1362.6L2713.8 1301.1C2719 1285.5 2735.9 1277.1 2751.5 1282.3C2767.1 1287.5 2775.5 1304.4 2770.3 1320L2749.8 1381.5C2744.6 1397.1 2727.7 1405.5 2712.2 1400.3C2704.4 1397.7 2698.4 1392.2 2695 1385.4C2691.5 1378.5 2690.7 1370.4 2693.3 1362.6Z" fill="white" stroke="#8281D8" stroke-width="5" stroke-miterlimit="10"/>
<path d="M2693.3 1362.6L2703.5 1331.9L2760 1350.7L2749.8 1381.4C2744.6 1397 2727.7 1405.4 2712.2 1400.2C2704.4 1397.6 2698.4 1392.1 2695 1385.3C2691.5 1378.5 2690.7 1370.4 2693.3 1362.6Z" fill="#8281D8"/>
<path d="M3090.5 1481.2L3062.8 1539.7C3055.8 1554.6 3038 1560.9 3023.2 1553.9C3008.3 1546.9 3002 1529.1 3009.1 1514.3L3036.8 1455.8C3043.8 1440.9 3061.6 1434.6 3076.4 1441.7C3083.8 1445.2 3089.1 1451.4 3091.7 1458.6C3094.2 1465.7 3094 1473.8 3090.5 1481.2Z" fill="white" stroke="#8281D8" stroke-width="5" stroke-miterlimit="10"/>
<path d="M3090.5 1481.2L3076.6 1510.5L3022.8 1485L3036.7 1455.7C3043.7 1440.8 3061.5 1434.5 3076.3 1441.6C3083.7 1445.1 3089 1451.3 3091.6 1458.5C3094.2 1465.7 3094 1473.8 3090.5 1481.2Z" fill="#8281D8"/>
<path d="M3017 1348.5L3034.2 1411C3038.6 1426.8 3029.3 1443.2 3013.4 1447.6C2997.6 1452 2981.2 1442.7 2976.8 1426.8L2959.6 1364.3C2955.2 1348.5 2964.5 1332.1 2980.4 1327.7C2988.3 1325.5 2996.4 1326.8 3003 1330.5C3009.6 1334.3 3014.8 1340.6 3017 1348.5Z" fill="white" stroke="#8281D8" stroke-width="5" stroke-miterlimit="10"/>
<path d="M3017 1348.5L3025.6 1379.7L2968.2 1395.5L2959.6 1364.3C2955.2 1348.5 2964.5 1332.1 2980.4 1327.7C2988.3 1325.5 2996.4 1326.8 3003 1330.5C3009.6 1334.3 3014.8 1340.6 3017 1348.5Z" fill="#8281D8"/>
<path d="M3007.6 1697.3H2762.7C2706.2 1697.3 2660.4 1651.5 2660.4 1595V1148.9H3109.9V1595C3109.9 1651.6 3064.1 1697.3 3007.6 1697.3Z" fill="#E8E8F8"/>
<path d="M3008.3 1697.8H2763.4C2706.9 1697.8 2661.1 1652 2661.1 1595.5V1149.4H3110.6V1595.5C3110.6 1652 3064.8 1697.8 3008.3 1697.8Z" stroke="#EFAF00" stroke-width="5" stroke-miterlimit="10"/>
<path d="M2958 1636.2C2958 1642.5 2955.4 1648.2 2951.3 1652.3C2947.2 1656.4 2941.5 1659 2935.2 1659H2786.9C2694.6 1659 2603 1679.1 2515.8 1709.3L2508.4 1711.9C2421.2 1742.1 2329.6 1757.5 2237.3 1757.5H1639.3C1605.8 1757.5 1578.7 1730.4 1578.7 1696.9V1575.6C1578.7 1542.1 1605.8 1515 1639.3 1515H2237.3C2329.6 1515 2421.2 1530.4 2508.4 1560.6L2515.8 1563.1C2603 1593.3 2694.6 1613.4 2786.9 1613.4H2935.2C2947.8 1613.4 2958 1623.6 2958 1636.2Z" fill="white" stroke="#88BED7" stroke-width="5" stroke-miterlimit="10"/>
<path d="M2958 1636.2C2958 1642.5 2955.4 1648.2 2951.3 1652.3C2947.2 1656.4 2941.5 1659 2935.2 1659H2837.4V1613.3H2935.2C2947.8 1613.4 2958 1623.6 2958 1636.2Z" fill="#88BED7"/>
<path d="M1994 1691.6H1817.1C1804.5 1691.6 1794.3 1681.4 1794.3 1668.8V1622.4C1794.3 1609.8 1804.5 1599.6 1817.1 1599.6H1994C2006.6 1599.6 2016.8 1609.8 2016.8 1622.4V1668.8C2016.8 1681.4 2006.6 1691.6 1994 1691.6Z" fill="#E4EFFD"/>
<path d="M1983.7 1682.2H1806.8C1794.2 1682.2 1784 1672 1784 1659.4V1613C1784 1600.4 1794.2 1590.2 1806.8 1590.2H1983.7C1996.3 1590.2 2006.5 1600.4 2006.5 1613V1659.4C2006.5 1672 1996.3 1682.2 1983.7 1682.2Z" stroke="#88BED7" stroke-width="5" stroke-miterlimit="10"/>
<path d="M2247.6 1671.1C2262.73 1671.1 2275 1658.83 2275 1643.7C2275 1628.57 2262.73 1616.3 2247.6 1616.3C2232.47 1616.3 2220.2 1628.57 2220.2 1643.7C2220.2 1658.83 2232.47 1671.1 2247.6 1671.1Z" fill="#E4EFFD"/>
<path d="M2240.1 1663.6C2255.23 1663.6 2267.5 1651.33 2267.5 1636.2C2267.5 1621.07 2255.23 1608.8 2240.1 1608.8C2224.97 1608.8 2212.7 1621.07 2212.7 1636.2C2212.7 1651.33 2224.97 1663.6 2240.1 1663.6Z" stroke="#88BED7" stroke-width="5" stroke-miterlimit="10"/>
<path d="M2490.2 1554.4C2524.5 1565.8 2549.2 1598.1 2549.2 1636.2C2549.2 1673.2 2525.9 1704.7 2493.2 1717" stroke="#88BED7" stroke-width="5" stroke-miterlimit="10"/>
<path d="M1816.6 1608.6H1843C1844.9 1608.6 1846.5 1610.1 1846.5 1612.1V1635C1846.5 1636.9 1845 1638.5 1843 1638.5H1816.6" stroke="#88BED7" stroke-width="5" stroke-miterlimit="10" stroke-linecap="round"/>
<path d="M1816.6 1638.5H1843C1844.9 1638.5 1846.5 1640 1846.5 1642V1664.9C1846.5 1666.8 1845 1668.4 1843 1668.4H1816.6" stroke="#88BED7" stroke-width="5" stroke-miterlimit="10" stroke-linecap="round"/>
<path d="M1894.2 1608.6H1867.8C1865.9 1608.6 1864.3 1610.1 1864.3 1612.1V1635" stroke="#88BED7" stroke-width="5" stroke-miterlimit="10" stroke-linecap="round"/>
<path d="M1891 1668.3H1867.9C1866 1668.3 1864.4 1666.8 1864.4 1664.8V1641.9C1864.4 1640 1865.9 1638.4 1867.9 1638.4H1891C1892.8 1638.4 1894.3 1639.9 1894.3 1641.7V1665C1894.2 1666.9 1892.8 1668.3 1891 1668.3Z" stroke="#88BED7" stroke-width="5" stroke-miterlimit="10" stroke-linecap="round"/>
<path d="M1974.8 1608.6H1948.4C1946.5 1608.6 1944.9 1610.1 1944.9 1612.1V1635" stroke="#88BED7" stroke-width="5" stroke-miterlimit="10" stroke-linecap="round"/>
<path d="M1971.5 1668.3H1948.4C1946.5 1668.3 1944.9 1666.8 1944.9 1664.8V1641.9C1944.9 1640 1946.4 1638.4 1948.4 1638.4H1971.5C1973.3 1638.4 1974.8 1639.9 1974.8 1641.7V1665C1974.8 1666.9 1973.3 1668.3 1971.5 1668.3Z" stroke="#88BED7" stroke-width="5" stroke-miterlimit="10" stroke-linecap="round"/>
<path d="M1924.7 1660.8H1917.2V1668.3H1924.7V1660.8Z" stroke="#88BED7" stroke-width="5" stroke-miterlimit="10" stroke-linecap="round" stroke-linejoin="round"/>
<path d="M3431.6 1328.8V1660.5C3431.6 1686.8 3410.3 1708.2 3383.9 1708.2H3246.7C3220.4 1708.2 3199 1686.9 3199 1660.5V1328.8C3199 1303.7 3218.4 1283.1 3243 1281.3V1237.3H3387.5V1281.3C3412.2 1283.1 3431.6 1303.7 3431.6 1328.8Z" fill="#E4EFFD"/>
<path d="M3431.6 1361.9V1661.3C3431.6 1687.6 3410.3 1709 3383.9 1709H3246.7C3220.4 1709 3199 1687.7 3199 1661.3V1361.9H3431.6Z" fill="#E4EFFD"/>
<path d="M3420.3 1319.9V1651.6C3420.3 1677.9 3399 1699.3 3372.6 1699.3H3235.4C3209.1 1699.3 3187.7 1678 3187.7 1651.6V1319.9C3187.7 1294.8 3207.1 1274.2 3231.7 1272.4V1220.3H3376.2V1272.4C3400.9 1274.3 3420.3 1294.8 3420.3 1319.9Z" stroke="#88BED7" stroke-width="5" stroke-miterlimit="10"/>
<path d="M3304 1577C3291.3 1577 3281 1566.7 3281 1554V1220.3H3327V1554C3327 1566.7 3316.7 1577 3304 1577Z" stroke="#88BED7" stroke-width="5" stroke-miterlimit="10"/>
<path d="M3351.4 1057.6H3256.6C3233.8 1057.6 3215.3 1076.1 3215.3 1098.9V1207.7C3215.3 1218.1 3223.7 1226.5 3234.1 1226.5H3374C3384.4 1226.5 3392.8 1218.1 3392.8 1207.7V1098.9C3392.7 1076.1 3374.2 1057.6 3351.4 1057.6Z" fill="white" stroke="#88BED7" stroke-width="5" stroke-miterlimit="10"/>
<path d="M3338.5 1057.6H3269.4L3278.9 820.2C3279.4 806.8 3290.5 796.1 3303.9 796.1C3317.3 796.1 3328.4 806.7 3328.9 820.2L3338.5 1057.6Z" fill="white" stroke="#88BED7" stroke-width="5" stroke-miterlimit="10"/>
<g opacity="0.7">
<path opacity="0.7" d="M3233.6 1614.6C3236.8 1614.6 3239.6 1613.3 3241.7 1611.2C3243.8 1609.1 3245.1 1606.3 3245.1 1603.1V1588.6C3245.1 1582.3 3240 1577.1 3233.6 1577.1C3230.4 1577.1 3227.6 1578.4 3225.5 1580.5C3223.4 1582.6 3222.1 1585.4 3222.1 1588.6V1603.1C3222.1 1609.4 3227.2 1614.6 3233.6 1614.6Z" fill="white"/>
<path opacity="0.7" d="M3233.6 1557.1C3236.8 1557.1 3239.6 1555.8 3241.7 1553.7C3243.8 1551.6 3245.1 1548.8 3245.1 1545.6V1355.3C3245.1 1349 3240 1343.8 3233.6 1343.8C3230.4 1343.8 3227.6 1345.1 3225.5 1347.2C3223.4 1349.3 3222.1 1352.1 3222.1 1355.3V1545.6C3222.1 1552 3227.2 1557.1 3233.6 1557.1Z" fill="white"/>
</g>
<path d="M3461.7 1570V1780C3461.7 1794.3 3450.1 1805.8 3435.9 1805.8H3408.5C3394.2 1805.8 3382.7 1794.2 3382.7 1780V1570C3382.7 1560.4 3387.9 1552 3395.7 1547.6C3403.2 1543.3 3407.6 1535.1 3407.6 1526.5V1526C3407.6 1521.7 3406.3 1517.6 3404.3 1513.9C3402.3 1510.3 3401.4 1506.1 3401.9 1501.7L3410.8 1421.7C3411.5 1415.9 3416.4 1411.5 3422.2 1411.5C3428 1411.5 3433 1415.9 3433.6 1421.7L3442.5 1501.7C3442.6 1502.5 3442.6 1503.2 3442.6 1504C3442.6 1507.6 3441.7 1511 3440 1513.9C3437.9 1517.6 3436.7 1521.8 3436.7 1526V1526.5C3436.7 1535.2 3441.1 1543.3 3448.6 1547.6C3456.4 1552 3461.7 1560.4 3461.7 1570Z" fill="#F5CF66"/>
<path d="M3461.7 1630.5V1786.7C3461.7 1797.3 3450.1 1805.9 3435.9 1805.9H3408.5C3394.2 1805.9 3382.7 1797.3 3382.7 1786.7V1630.5H3461.7Z" fill="#EFAF00"/>
<path d="M3461.7 1570V1780C3461.7 1794.3 3450.1 1805.8 3435.9 1805.8H3408.5C3394.2 1805.8 3382.7 1794.2 3382.7 1780V1570C3382.7 1560.4 3387.9 1552 3395.7 1547.6C3403.2 1543.3 3407.6 1535.1 3407.6 1526.5V1526C3407.6 1521.7 3406.3 1517.6 3404.3 1513.9C3402.3 1510.3 3401.4 1506.1 3401.9 1501.7L3410.8 1421.7C3411.5 1415.9 3416.4 1411.5 3422.2 1411.5C3428 1411.5 3433 1415.9 3433.6 1421.7L3442.5 1501.7C3442.6 1502.5 3442.6 1503.2 3442.6 1504C3442.6 1507.6 3441.7 1511 3440 1513.9C3437.9 1517.6 3436.7 1521.8 3436.7 1526V1526.5C3436.7 1535.2 3441.1 1543.3 3448.6 1547.6C3456.4 1552 3461.7 1560.4 3461.7 1570Z" stroke="#EFAF00" stroke-width="6" stroke-miterlimit="10"/>
<g opacity="0.7">
<path opacity="0.7" d="M3401.6 1752.3C3403.3 1752.3 3404.8 1751.6 3405.9 1750.3C3407 1749.1 3407.7 1747.4 3407.7 1745.6V1737.1C3407.7 1733.4 3405 1730.4 3401.6 1730.4C3399.9 1730.4 3398.4 1731.1 3397.3 1732.4C3396.2 1733.6 3395.5 1735.3 3395.5 1737.1V1745.6C3395.5 1749.3 3398.2 1752.3 3401.6 1752.3Z" fill="white"/>
<path opacity="0.7" d="M3401.6 1718.8C3403.3 1718.8 3404.8 1718.1 3405.9 1716.8C3407 1715.6 3407.7 1713.9 3407.7 1712.1V1601.1C3407.7 1597.4 3405 1594.4 3401.6 1594.4C3399.9 1594.4 3398.4 1595.1 3397.3 1596.4C3396.2 1597.6 3395.5 1599.3 3395.5 1601.1V1712.1C3395.5 1715.8 3398.2 1718.8 3401.6 1718.8Z" fill="white"/>
</g>
<path d="M3596 1466.3V1676.3C3596 1690.6 3584.4 1702.1 3570.2 1702.1H3542.8C3528.5 1702.1 3517 1690.5 3517 1676.3V1466.3C3517 1456.7 3522.2 1448.3 3530 1443.9C3537.5 1439.6 3541.9 1431.4 3541.9 1422.8V1422.3C3541.9 1418 3540.6 1413.9 3538.6 1410.2C3536.6 1406.6 3535.7 1402.4 3536.2 1398L3545.1 1318C3545.8 1312.2 3550.7 1307.8 3556.5 1307.8C3562.3 1307.8 3567.3 1312.2 3567.9 1318L3576.8 1398C3576.9 1398.8 3576.9 1399.5 3576.9 1400.3C3576.9 1403.9 3576 1407.3 3574.3 1410.2C3572.2 1413.9 3571 1418.1 3571 1422.3V1422.8C3571 1431.5 3575.4 1439.6 3582.9 1443.9C3590.8 1448.3 3596 1456.7 3596 1466.3Z" fill="#F5CF66"/>
<path d="M3596 1526.8V1683C3596 1693.6 3584.4 1702.2 3570.2 1702.2H3542.8C3528.5 1702.2 3517 1693.6 3517 1683V1526.8H3596Z" fill="#EFAF00"/>
<path d="M3596 1466.3V1676.3C3596 1690.6 3584.4 1702.1 3570.2 1702.1H3542.8C3528.5 1702.1 3517 1690.5 3517 1676.3V1466.3C3517 1456.7 3522.2 1448.3 3530 1443.9C3537.5 1439.6 3541.9 1431.4 3541.9 1422.8V1422.3C3541.9 1418 3540.6 1413.9 3538.6 1410.2C3536.6 1406.6 3535.7 1402.4 3536.2 1398L3545.1 1318C3545.8 1312.2 3550.7 1307.8 3556.5 1307.8C3562.3 1307.8 3567.3 1312.2 3567.9 1318L3576.8 1398C3576.9 1398.8 3576.9 1399.5 3576.9 1400.3C3576.9 1403.9 3576 1407.3 3574.3 1410.2C3572.2 1413.9 3571 1418.1 3571 1422.3V1422.8C3571 1431.5 3575.4 1439.6 3582.9 1443.9C3590.8 1448.3 3596 1456.7 3596 1466.3Z" stroke="#EFAF00" stroke-width="6" stroke-miterlimit="10"/>
<g opacity="0.7">
<path opacity="0.7" d="M3535.9 1648.6C3537.6 1648.6 3539.1 1647.9 3540.2 1646.6C3541.3 1645.4 3542 1643.7 3542 1641.9V1633.4C3542 1629.7 3539.3 1626.7 3535.9 1626.7C3534.2 1626.7 3532.7 1627.4 3531.6 1628.7C3530.5 1629.9 3529.8 1631.6 3529.8 1633.4V1641.9C3529.9 1645.6 3532.6 1648.6 3535.9 1648.6Z" fill="white"/>
<path opacity="0.7" d="M3535.9 1615.1C3537.6 1615.1 3539.1 1614.4 3540.2 1613.1C3541.3 1611.9 3542 1610.2 3542 1608.4V1497.4C3542 1493.7 3539.3 1490.7 3535.9 1490.7C3534.2 1490.7 3532.7 1491.4 3531.6 1492.7C3530.5 1493.9 3529.8 1495.6 3529.8 1497.4V1608.4C3529.9 1612.1 3532.6 1615.1 3535.9 1615.1Z" fill="white"/>
</g>
<path d="M3703.8 1466.3V1676.3C3703.8 1690.6 3692.2 1702.1 3678 1702.1H3650.6C3636.3 1702.1 3624.8 1690.5 3624.8 1676.3V1466.3C3624.8 1456.7 3630 1448.3 3637.8 1443.9C3645.3 1439.6 3649.7 1431.4 3649.7 1422.8V1422.3C3649.7 1418 3648.4 1413.9 3646.4 1410.2C3644.4 1406.6 3643.5 1402.4 3644 1398L3652.9 1318C3653.6 1312.2 3658.5 1307.8 3664.3 1307.8C3670.1 1307.8 3675.1 1312.2 3675.7 1318L3684.6 1398C3684.7 1398.8 3684.7 1399.5 3684.7 1400.3C3684.7 1403.9 3683.8 1407.3 3682.1 1410.2C3680 1413.9 3678.8 1418.1 3678.8 1422.3V1422.8C3678.8 1431.5 3683.2 1439.6 3690.7 1443.9C3698.6 1448.3 3703.8 1456.7 3703.8 1466.3Z" fill="#F5CF66"/>
<path d="M3703.8 1526.8V1683C3703.8 1693.6 3692.2 1702.2 3678 1702.2H3650.6C3636.3 1702.2 3624.8 1693.6 3624.8 1683V1526.8H3703.8Z" fill="#EFAF00"/>
<path d="M3703.8 1466.3V1676.3C3703.8 1690.6 3692.2 1702.1 3678 1702.1H3650.6C3636.3 1702.1 3624.8 1690.5 3624.8 1676.3V1466.3C3624.8 1456.7 3630 1448.3 3637.8 1443.9C3645.3 1439.6 3649.7 1431.4 3649.7 1422.8V1422.3C3649.7 1418 3648.4 1413.9 3646.4 1410.2C3644.4 1406.6 3643.5 1402.4 3644 1398L3652.9 1318C3653.6 1312.2 3658.5 1307.8 3664.3 1307.8C3670.1 1307.8 3675.1 1312.2 3675.7 1318L3684.6 1398C3684.7 1398.8 3684.7 1399.5 3684.7 1400.3C3684.7 1403.9 3683.8 1407.3 3682.1 1410.2C3680 1413.9 3678.8 1418.1 3678.8 1422.3V1422.8C3678.8 1431.5 3683.2 1439.6 3690.7 1443.9C3698.6 1448.3 3703.8 1456.7 3703.8 1466.3Z" stroke="#EFAF00" stroke-width="6" stroke-miterlimit="10"/>
<g opacity="0.7">
<path opacity="0.7" d="M3643.7 1648.6C3645.4 1648.6 3646.9 1647.9 3648 1646.6C3649.1 1645.4 3649.8 1643.7 3649.8 1641.9V1633.4C3649.8 1629.7 3647.1 1626.7 3643.7 1626.7C3642 1626.7 3640.5 1627.4 3639.4 1628.7C3638.3 1629.9 3637.6 1631.6 3637.6 1633.4V1641.9C3637.7 1645.6 3640.4 1648.6 3643.7 1648.6Z" fill="white"/>
<path opacity="0.7" d="M3643.7 1615.1C3645.4 1615.1 3646.9 1614.4 3648 1613.1C3649.1 1611.9 3649.8 1610.2 3649.8 1608.4V1497.4C3649.8 1493.7 3647.1 1490.7 3643.7 1490.7C3642 1490.7 3640.5 1491.4 3639.4 1492.7C3638.3 1493.9 3637.6 1495.6 3637.6 1497.4V1608.4C3637.7 1612.1 3640.4 1615.1 3643.7 1615.1Z" fill="white"/>
</g>
<path d="M4229.8 1838.4C4229.8 1838.4 4248.9 1878 4235.8 1892.4H4067.7C4067.7 1892.4 4068.6 1864.7 4109.1 1860.3C4145.4 1856.4 4167.6 1838.5 4167.6 1838.5H4229.8V1838.4Z" fill="#E6E6E6"/>
<path d="M4066 1902.3H4238C4239.4 1902.3 4240.6 1901.1 4240.6 1899.7V1895C4240.6 1893.6 4239.4 1892.4 4238 1892.4H4066C4064.6 1892.4 4063.4 1893.6 4063.4 1895V1899.7C4063.4 1901.1 4064.6 1902.3 4066 1902.3Z" fill="#88BED7"/>
<path d="M4144.8 1863.7L4139.3 1850.6C4139 1849.9 4138.4 1849.4 4137.7 1849.1C4137 1848.8 4136.2 1848.9 4135.5 1849.2C4134.2 1849.8 4133.6 1851.3 4134.1 1852.7L4134.2 1852.9L4134.7 1854.7L4130 1855.9L4129.6 1854.2C4128.4 1850.6 4130 1846.6 4133.4 1844.9C4135.3 1843.9 4137.4 1843.8 4139.4 1844.5C4141.4 1845.2 4143 1846.7 4143.8 1848.6L4149.3 1861.7L4144.8 1863.7Z" fill="#88BED7"/>
<path d="M4120.8 1870.8L4117.2 1857.6C4117 1856.9 4116.5 1856.3 4115.8 1855.9C4115.1 1855.5 4114.3 1855.5 4113.6 1855.7C4112 1856.3 4111.2 1857.8 4111.5 1859.9L4106.7 1860.4C4106.2 1856 4108.3 1852.4 4112.1 1851.1C4114.1 1850.4 4116.3 1850.5 4118.1 1851.5C4120 1852.5 4121.4 1854.1 4122 1856.2L4125.6 1869.5L4120.8 1870.8Z" fill="#88BED7"/>
<path d="M3983.4 1838.4C3983.4 1838.4 4002.5 1878 3989.4 1892.4H3821.3C3821.3 1892.4 3822.2 1864.7 3862.7 1860.3C3899 1856.4 3921.2 1838.5 3921.2 1838.5H3983.4V1838.4Z" fill="#E6E6E6"/>
<path d="M3819.7 1902.3H3991.7C3993.1 1902.3 3994.3 1901.1 3994.3 1899.7V1895C3994.3 1893.6 3993.1 1892.4 3991.7 1892.4H3819.7C3818.3 1892.4 3817.1 1893.6 3817.1 1895V1899.7C3817.1 1901.1 3818.2 1902.3 3819.7 1902.3Z" fill="#88BED7"/>
<path d="M3898.5 1863.7L3893 1850.6C3892.7 1849.9 3892.1 1849.4 3891.4 1849.1C3890.7 1848.8 3889.9 1848.9 3889.2 1849.2C3887.9 1849.8 3887.3 1851.3 3887.8 1852.7L3887.9 1852.9L3888.4 1854.7L3883.7 1855.9L3883.3 1854.2C3882.1 1850.6 3883.7 1846.6 3887.1 1844.9C3889 1843.9 3891.1 1843.8 3893.1 1844.5C3895.1 1845.2 3896.7 1846.7 3897.5 1848.6L3903 1861.7L3898.5 1863.7Z" fill="#88BED7"/>
<path d="M3874.4 1870.8L3870.8 1857.6C3870.6 1856.9 3870.1 1856.3 3869.4 1855.9C3868.7 1855.5 3867.9 1855.5 3867.2 1855.7C3865.6 1856.3 3864.8 1857.8 3865.1 1859.9L3860.3 1860.4C3859.8 1856 3861.9 1852.4 3865.7 1851.1C3867.7 1850.4 3869.9 1850.5 3871.7 1851.5C3873.6 1852.5 3875 1854.1 3875.6 1856.2L3879.2 1869.5L3874.4 1870.8Z" fill="#88BED7"/>
<path d="M4239.1 1837.9C4178.2 1847.5 4153.4 1836.8 4153.4 1836.8C4153.4 1836.8 4069.2 1354.5 4023.2 1101.9L4011 1095.6C4011 1095.6 4004.9 1400.3 4021.5 1514.6C4038.2 1629.3 4001.9 1838.2 4001.9 1838.2C3949.3 1846.4 3899 1838.2 3899 1838.2C3899 1838.2 3887.8 1603.3 3870.3 1428.8C3860.7 1332.8 3848.4 978.1 3849.2 954.6L3994.9 953.7L4059.6 953.3L4167.7 952.7L4188.4 952.6C4189.9 1001.8 4196.1 1382.3 4240 1489.2C4284.6 1597.6 4239.1 1837.9 4239.1 1837.9Z" fill="#88BED7"/>
<path d="M4077.3 476.999C4091 476.999 4221 502.899 4220.9 559.499C4220.8 621.499 4154.9 825.699 4160.3 863.099C4165.7 900.499 4201 949.999 4184.8 957.099C4141 976.299 3995 991.499 3848.9 954.299C3848.9 954.299 3864.1 919.899 3837.9 770.499C3823.6 688.999 3820.2 533.099 3832.4 516.799C3844.6 500.499 3918.1 483.799 3945.1 478.799C3972.1 473.799 4077.3 476.999 4077.3 476.999Z" fill="#88BED7"/>
<path d="M4071.1 476.5C4067.8 495.3 4033.9 920.8 4080.2 1132.5C4080.2 1132.5 4155.4 1142.8 4232.4 1113.9C4232.4 1113.9 4188.7 847.8 4186 803.4C4183.3 759.1 4217.3 530.8 4196.7 518.2C4128.3 476.5 4071.1 476.5 4071.1 476.5Z" fill="#E4EFFD"/>
<path d="M3942.2 479.4C3942.2 479.4 3950.6 883.6 3952.9 1130.4C3952.9 1130.4 3878.7 1149 3814.7 1120.1C3814.7 1120.1 3839.9 821.3 3840.2 783.3C3840.6 745.2 3820.8 520.1 3842.4 508.6C3888.9 483.9 3942.2 479.4 3942.2 479.4Z" fill="#E4EFFD"/>
<path d="M3749.9 890.499C3847 887.499 3917.3 482.699 3855.7 503.299C3846 506.599 3817.4 518.299 3797.8 534.799C3760.2 566.399 3727.6 677.299 3711.1 741.999C3642.4 712.199 3546.2 683.299 3529.4 678.799C3509.2 673.499 3480.6 734.099 3492.6 751.799C3502.4 766.399 3615.9 894.599 3749.9 890.499Z" fill="#E4EFFD"/>
<path d="M3834.6 805.3C3839.1 777.2 3830.2 731.3 3828.4 664.6" stroke="white" stroke-width="6" stroke-miterlimit="10"/>
<path d="M3506.9 732.198C3497.7 730.398 3461.6 716.798 3452.8 708.898C3444 700.998 3434 669.798 3433.9 666.398C3433.8 662.998 3432 642.898 3432 642.898C3432 642.898 3447.2 643.098 3454 655.398C3463 671.698 3469.3 678.598 3479 680.998C3483 681.998 3491.1 685.498 3492 678.998C3492.9 672.498 3477 667.298 3474.1 663.398C3469.6 657.398 3471.8 648.898 3471.8 648.898C3471.8 648.898 3495.4 656.698 3499.9 658.098C3504.4 659.598 3530.9 676.898 3536.5 697.798C3539.9 710.498 3523.7 735.498 3506.9 732.198Z" fill="#E18C32"/>
<path d="M3572 599.599L4273.7 915.999L4205.7 1066.8L3504 750.399C3499.7 748.499 3496.5 744.899 3495.2 740.599L3477.6 684.599L3505.3 623.199L3558.9 599.399C3563 597.599 3567.8 597.699 3572 599.599Z" fill="white" stroke="#88BED7" stroke-width="5" stroke-miterlimit="10"/>
<path d="M3408.64 599.507L3395.69 628.223L3460.78 657.568L3473.73 628.853L3408.64 599.507Z" fill="white" stroke="#88BED7" stroke-width="5" stroke-miterlimit="10"/>
<path d="M3507.6 621.199L3477.6 687.799L3461.4 680.499C3456.2 678.099 3453.9 671.999 3456.2 666.799L3477.7 618.999C3480.1 613.799 3486.2 611.499 3491.4 613.799L3507.6 621.199Z" fill="white" stroke="#88BED7" stroke-width="5" stroke-miterlimit="10"/>
<path d="M3579.61 638.304L3537.94 730.74L4284.45 1067.31L4326.12 974.872L3579.61 638.304Z" fill="#CBE1FD" stroke="#88BED7" stroke-width="5" stroke-miterlimit="10"/>
<path d="M4294.5 912.298L4216.8 1084.6C4215.2 1088.1 4211.2 1089.6 4207.7 1088L4204.4 1086.5C4200.9 1084.9 4199.4 1080.9 4201 1077.4L4278.7 905.098C4280.3 901.598 4284.3 900.098 4287.8 901.698L4291.1 903.198C4294.5 904.798 4296 908.898 4294.5 912.298Z" fill="white" stroke="#88BED7" stroke-width="5" stroke-miterlimit="10"/>
<path d="M3540.9 630.198L3506.4 706.799C3503.9 712.399 3506.4 718.998 3512 721.498L3537 732.799L3580.7 635.898L3555.7 624.598C3550 622.098 3543.4 624.598 3540.9 630.198Z" fill="#88BED7"/>
<path d="M4353.9 960.799L4292.4 1097.2C4290.6 1101.2 4285.9 1103 4281.9 1101.2L4278 1099.5C4274 1097.7 4272.2 1093 4274 1089L4335.5 952.599C4337.3 948.599 4342 946.799 4346 948.599L4349.9 950.299C4353.9 952.099 4355.7 956.799 4353.9 960.799Z" fill="white" stroke="#88BED7" stroke-width="5" stroke-miterlimit="10"/>
<path d="M3615.7 689.499L3642 631.199" stroke="#88BED7" stroke-width="5" stroke-miterlimit="10"/>
<path d="M3657.8 691.699L3677.8 647.299" stroke="#88BED7" stroke-width="5" stroke-miterlimit="10"/>
<path d="M3687.3 721.798L3713.6 663.398" stroke="#88BED7" stroke-width="5" stroke-miterlimit="10"/>
<path d="M3729.4 724L3749.4 679.6" stroke="#88BED7" stroke-width="5" stroke-miterlimit="10"/>
<path d="M3758.9 754.099L3785.3 695.699" stroke="#88BED7" stroke-width="5" stroke-miterlimit="10"/>
<path d="M3801 756.298L3821.1 711.898" stroke="#88BED7" stroke-width="5" stroke-miterlimit="10"/>
<path d="M3830.6 786.4L3856.9 728" stroke="#88BED7" stroke-width="5" stroke-miterlimit="10"/>
<path d="M3872.6 788.599L3892.7 744.199" stroke="#88BED7" stroke-width="5" stroke-miterlimit="10"/>
<path d="M3902.2 818.699L3928.5 760.299" stroke="#88BED7" stroke-width="5" stroke-miterlimit="10"/>
<path d="M3944.3 820.898L3964.3 776.398" stroke="#88BED7" stroke-width="5" stroke-miterlimit="10"/>
<path d="M3973.8 851L4000.1 792.6" stroke="#88BED7" stroke-width="5" stroke-miterlimit="10"/>
<path d="M4015.9 853.099L4035.9 808.699" stroke="#88BED7" stroke-width="5" stroke-miterlimit="10"/>
<path d="M4045.4 883.198L4071.7 824.898" stroke="#88BED7" stroke-width="5" stroke-miterlimit="10"/>
<path d="M4285.2 857.499C4348.3 798.999 4276 524.699 4180.9 512.899C4171.2 511.699 4150.7 519.099 4149.3 580.299C4148 638.299 4175.8 756.199 4183.7 788.299C4124 817.999 4030.2 899.199 4013 908.799C3995.7 918.399 4020.4 966.499 4040.1 961.899C4055.3 958.299 4220.9 918.199 4285.2 857.499Z" fill="#E4EFFD"/>
<path d="M4007.8 918.198C4007.8 918.198 4084.2 841.998 4183.5 788.198C4183.5 788.198 4163.3 713.798 4156.6 657.098" stroke="white" stroke-width="6" stroke-miterlimit="10"/>
<path d="M4020.1 962.398C4011.4 965.798 3971.9 977.098 3960.3 975.598C3948.7 974.098 3928.1 960.098 3926.3 957.498C3924.4 954.898 3917.8 932.998 3917.8 932.998C3917.8 932.998 3925.9 926.698 3933.6 937.098C3942.7 949.398 3959.9 946.998 3969.2 943.798C3973.1 942.498 3981 937.098 3978.3 931.698C3975.6 926.298 3959.8 931.098 3955.2 929.598C3948.3 927.398 3946.4 919.298 3946.4 919.298C3946.4 919.298 3969.2 913.098 3973.8 911.798C3978.4 910.498 4006.7 911.598 4024.7 921.898C4042.8 931.998 4040.2 954.498 4020.1 962.398Z" fill="#E18C32"/>
<path d="M4047.8 392C4047.8 392 4038.8 434.3 4070 477.1C4070 477.1 4016.1 504.7 3942.7 479.9C3942.7 479.9 3985.9 465 3967.4 393.7L4047.8 392Z" fill="#E18C32"/>
<path d="M4046.1 392C4046.1 394.8 4046.1 397.2 4046.1 398.9C4046.1 398.9 4042.9 431 4026.4 446.8C4013.5 459.1 3973.7 471.6 3960.8 465.4C3969.3 447.8 3974.9 422.1 3967.5 393.8L4046.1 392Z" fill="#D97802"/>
<path d="M4047 397.899C4047 397.899 4029.9 426.799 4022.2 429.699C4003.1 436.899 3972.7 443.199 3962.5 437.899C3955.6 434.299 3955.2 434.099 3947 398.699C3941.2 373.399 3946.9 321.599 3950.8 319.299C3954.7 316.999 4035.8 311.599 4040 319.999C4044.2 328.399 4047.3 384.699 4047 397.899Z" fill="#E18C32"/>
<path d="M3958 370.099C3960.87 370.099 3963.2 367.771 3963.2 364.899C3963.2 362.027 3960.87 359.699 3958 359.699C3955.13 359.699 3952.8 362.027 3952.8 364.899C3952.8 367.771 3955.13 370.099 3958 370.099Z" fill="#40465C"/>
<path d="M4001.1 370.099C4003.97 370.099 4006.3 367.771 4006.3 364.899C4006.3 362.027 4003.97 359.699 4001.1 359.699C3998.23 359.699 3995.9 362.027 3995.9 364.899C3995.9 367.771 3998.23 370.099 4001.1 370.099Z" fill="#40465C"/>
<path d="M3977.9 360.299L3970.7 390.199H3982.7" stroke="#40465C" stroke-width="4.8109" stroke-miterlimit="10" stroke-linecap="round" stroke-linejoin="round"/>
<path d="M4046.5 378.6C4046.5 378.6 4031.4 379.6 4035.6 353.8C4039.4 330.8 4033.2 326.1 4002.4 334.8C3977.3 341.9 3940.5 340.5 3926.9 319.9C3919.2 308.2 3923.6 305.2 3936 297.5C3951.6 287.9 3982.5 270.1 4021.1 278.3C4052 284.8 4053.6 310.8 4053.6 310.8C4053.6 310.8 4072.1 306.7 4076.3 326C4081.5 350.4 4047.1 398.4 4047.1 398.4L4046.5 378.6Z" fill="#E6E6E6"/>
<path d="M4011.5 330.299C3993.7 341.399 3947.6 348.799 3933 334.299" stroke="#E6E6E6" stroke-width="4" stroke-miterlimit="10"/>
<path d="M4052.7 311.7C4052.7 311.7 4062.5 301.2 4072.6 307.4" stroke="#E6E6E6" stroke-width="4" stroke-miterlimit="10"/>
<path d="M4052.4 393.4C4051.2 398.4 4047.7 405.4 4043.1 411.8C4041.1 414.7 4036.8 420.2 4031.9 424C4028.2 437.8 3962.6 450.5 3952.7 431.8C3943.6 414.7 3944.9 383.2 3944.9 383.2C3964.2 371.9 4008 377.7 4023.4 383.4C4028.3 382.3 4040.1 379.3 4050.5 375C4047.7 376.8 4045.6 379.5 4044.9 380.4C4036.4 383.4 4028.1 385.4 4024.2 386.4C4026 393.7 4030.6 412.7 4031.8 420.4C4034.7 417.9 4037.8 414.4 4040.7 410.3C4043.5 406.4 4045.8 402.3 4047.5 398.6C4048.2 397.7 4050.2 395.8 4052.4 393.4Z" fill="#E4EFFD"/>
<path d="M4044.6 380.6C4044.6 380.6 4053.9 367.7 4061.2 375.7C4066.2 381.2 4047 398.8 4047 398.8L4044.6 380.6Z" fill="#E18C32"/>
</svg>
