<svg width="764" height="557" viewBox="0 0 764 557" fill="none" xmlns="http://www.w3.org/2000/svg">
<path d="M26.8897 554.159C-3.63028 523.589 -16.2603 456.869 37.7397 391.269C87.6797 330.619 82.2197 226.219 216.18 206.489C350.14 186.759 396.88 332.929 495.53 368.079C539.64 383.799 589.64 363.009 635.18 417.119C660.56 447.279 658.08 508.659 624.94 554.159H26.8897Z" fill="#FFF0F0"/>
<path d="M620.6 554.799C611.56 542.109 603.96 525.759 597.8 505.729C587.07 470.899 593.51 415.059 613.16 387.939C632.82 360.829 657.13 349.409 677.15 361.369C697.16 373.339 684.73 397.679 673.73 411.289C662.72 424.899 617.15 488.759 635.89 554.539" stroke="#F99898" stroke-width="3" stroke-linecap="round" stroke-linejoin="round"/>
<path d="M670.84 366.898C658.98 372.108 627.82 403.158 616.74 440.388C606.13 476.038 610.12 514.178 628.71 554.798" stroke="#F99898" stroke-width="3" stroke-linecap="round" stroke-linejoin="round"/>
<path d="M680.24 383.048L653.93 380.328" stroke="#F99898" stroke-width="3" stroke-linecap="round" stroke-linejoin="round"/>
<path d="M667.62 398.248L640.21 396.318" stroke="#F99898" stroke-width="3" stroke-linecap="round" stroke-linejoin="round"/>
<path d="M659.27 413.139L630.96 410.219" stroke="#F99898" stroke-width="3" stroke-linecap="round" stroke-linejoin="round"/>
<path d="M621.97 426.279L652.48 426.869" stroke="#F99898" stroke-width="3" stroke-linecap="round" stroke-linejoin="round"/>
<path d="M616.33 441.799H644.96" stroke="#F99898" stroke-width="3" stroke-linecap="round" stroke-linejoin="round"/>
<path d="M612.979 460.85H638.729" stroke="#F99898" stroke-width="3" stroke-linecap="round" stroke-linejoin="round"/>
<path d="M611.75 476.28L632.09 474.939" stroke="#F99898" stroke-width="3" stroke-linecap="round" stroke-linejoin="round"/>
<path d="M612.979 495.658L628.71 492.758" stroke="#F99898" stroke-width="3" stroke-linecap="round" stroke-linejoin="round"/>
<path d="M615.449 511.468L628.709 507.508" stroke="#F99898" stroke-width="3" stroke-linecap="round" stroke-linejoin="round"/>
<path d="M614.21 504.589L600.35 499.27" stroke="#F99898" stroke-width="3" stroke-linecap="round" stroke-linejoin="round"/>
<path d="M612.07 484.969L597.64 479.289" stroke="#F99898" stroke-width="3" stroke-linecap="round" stroke-linejoin="round"/>
<path d="M612.07 466.909L598.75 460.629" stroke="#F99898" stroke-width="3" stroke-linecap="round" stroke-linejoin="round"/>
<path d="M614.769 448.648L601.489 439.338" stroke="#F99898" stroke-width="3" stroke-linecap="round" stroke-linejoin="round"/>
<path d="M646.9 387.609L638.729 372.729" stroke="#F99898" stroke-width="3" stroke-linecap="round" stroke-linejoin="round"/>
<path d="M634.94 403.119L624.26 385.229" stroke="#F99898" stroke-width="3" stroke-linecap="round" stroke-linejoin="round"/>
<path d="M626.44 417.119L612.979 401.619" stroke="#F99898" stroke-width="3" stroke-linecap="round" stroke-linejoin="round"/>
<path d="M619.229 432.999L605.409 419.369" stroke="#F99898" stroke-width="3" stroke-linecap="round" stroke-linejoin="round"/>
<path d="M662.019 372.73L658.039 363.43" stroke="#F99898" stroke-width="3" stroke-linecap="round" stroke-linejoin="round"/>
<path d="M660.689 555.429C681.949 555.429 722.499 552.809 739.449 520.579C756.399 488.359 761.239 430.259 763.059 418.749C764.869 407.249 755.189 404.709 730.369 403.249C705.549 401.799 663.009 415.069 638.879 449.889C614.759 484.719 616.439 544.409 660.689 555.429Z" fill="#FFC7C6"/>
<path d="M753.369 412.918C714.649 422.468 668.979 476.688 654.669 553.528" stroke="white" stroke-width="3" stroke-linecap="round"/>
<path d="M756.23 434.629L720.26 430.799" stroke="white" stroke-width="3" stroke-linecap="round"/>
<path d="M703.939 414.279L708.789 441.459" stroke="white" stroke-width="3" stroke-linecap="round"/>
<path d="M672.6 431.35L686.4 470.42" stroke="white" stroke-width="3" stroke-linecap="round"/>
<path d="M744.87 459.099L696.64 455.719" stroke="white" stroke-width="3" stroke-linecap="round"/>
<path d="M650.919 460.629L670.299 499.339" stroke="white" stroke-width="3" stroke-linecap="round"/>
<path d="M735.169 491.869L678.199 486.469" stroke="white" stroke-width="3" stroke-linecap="round"/>
<path d="M720.259 523.589L663.089 520.479" stroke="white" stroke-width="3" stroke-linecap="round"/>
<path d="M635.18 486.6L660.42 529.25" stroke="white" stroke-width="3" stroke-linecap="round"/>
<path d="M517.19 96.9082C502.9 101.578 497.51 157.558 488.2 168.128C482 175.168 469.7 185.108 451.33 197.928L457.72 219.138C485.91 203.828 501.85 194.438 505.53 190.978C509.21 187.518 515.73 173.838 525.07 149.918L517.19 96.9082Z" fill="#EE9681"/>
<path d="M428.63 206.49C428.6 206.63 428.47 206.91 427.88 207.17C423.68 209.02 419.23 208.19 414.64 207.7C410.02 207.2 406.24 206.96 402 206.57C395.88 206.01 396.42 214.63 399.21 218.52C403.17 224.03 410.15 226.86 416.54 228.43C429.64 231.65 446.05 227.06 457.72 219.14C453.47 205.02 451.33 197.95 451.33 197.93C448.68 200.22 445.26 201.44 444.54 201.37C442.74 201.19 440.74 200.02 439 199.41" fill="#EE9681"/>
<path d="M113.65 552.639C100.47 552.639 74.6498 557.609 52.5498 535.699C30.4498 513.799 27.3098 459.119 35.0598 443.439C40.4698 432.479 102.88 444.219 123.75 470.419C144.62 496.619 144.36 540.219 113.65 552.639Z" fill="#FFC7C6"/>
<path d="M46.1094 446.588C69.7394 457.348 114.099 498.758 119.999 543.568" stroke="white" stroke-width="3" stroke-linecap="round"/>
<path d="M43.04 466.908L73.27 465.488" stroke="white" stroke-width="3" stroke-linecap="round"/>
<path d="M84.7295 455.719V476.749" stroke="white" stroke-width="3" stroke-linecap="round"/>
<path d="M46.1094 491.67L93.2394 486.6" stroke="white" stroke-width="3" stroke-linecap="round"/>
<path d="M106.31 470.418L104.51 501.988" stroke="white" stroke-width="3" stroke-linecap="round"/>
<path d="M55.0098 517.938L110.02 512.479" stroke="white" stroke-width="3" stroke-linecap="round"/>
<path d="M364.82 543.029C366.62 543.029 368.08 541.569 368.08 539.759V55.0591C368.08 53.2591 366.62 51.7891 364.82 51.7891C363.01 51.7891 361.55 53.2591 361.55 55.0591V539.759C361.55 541.569 363.01 543.029 364.82 543.029Z" fill="#BCE3F6"/>
<path d="M416.91 79.5495H314.57C312.77 79.5495 311.31 78.0895 311.31 76.2795C311.31 74.4795 312.77 73.0195 314.57 73.0195H417.23" fill="#BCE3F6"/>
<path d="M305.04 540.62C306.84 540.62 308.31 539.16 308.31 537.35V533.42L365.66 518.17C367.4 517.71 368.44 515.92 367.97 514.17C367.51 512.43 365.72 511.4 363.98 511.86L304.2 527.75C302.77 528.13 301.77 529.43 301.77 530.91V537.35C301.77 539.16 303.24 540.62 305.04 540.62Z" fill="#BCE3F6"/>
<path d="M424.589 540.619C426.399 540.619 427.859 539.159 427.859 537.349V530.909C427.859 529.429 426.859 528.129 425.429 527.749L365.659 511.859C363.909 511.389 362.119 512.429 361.659 514.169C361.199 515.919 362.229 517.709 363.979 518.169L421.329 533.419V537.349C421.329 539.159 422.789 540.619 424.589 540.619Z" fill="#BCE3F6"/>
<path d="M355.64 545.549C355.64 550.619 359.75 554.729 364.82 554.729C369.89 554.729 374 550.619 374 545.549C374 540.479 369.89 536.369 364.82 536.369C359.75 536.369 355.64 540.479 355.64 545.549Z" fill="#517CC5"/>
<path d="M295.859 545.549C295.859 550.619 299.969 554.729 305.039 554.729C310.109 554.729 314.219 550.619 314.219 545.549C314.219 540.479 310.109 536.369 305.039 536.369C299.969 536.369 295.859 540.479 295.859 545.549Z" fill="#517CC5"/>
<path d="M434.069 545.549C434.069 550.619 429.959 554.729 424.889 554.729C419.819 554.729 415.709 550.619 415.709 545.549C415.709 540.479 419.819 536.369 424.889 536.369C429.959 536.369 434.069 540.479 434.069 545.549Z" fill="#517CC5"/>
<path fill-rule="evenodd" clip-rule="evenodd" d="M395.529 162.379C386.529 158.219 382.859 152.139 383.089 148.909C383.459 143.689 385.699 109.779 387.189 97.1088C388.679 84.4388 391.289 81.0788 395.389 79.5188C399.479 77.9488 403.579 76.9788 406.559 73.1688C409.549 69.3588 411.779 65.9688 418.489 65.9688C425.199 65.9688 427.429 69.3588 430.409 73.1688C433.399 76.9788 437.499 77.9488 441.589 79.5188C445.689 81.0788 448.299 84.4388 449.789 97.1088C451.279 109.779 453.519 143.689 453.889 148.909C454.139 152.379 449.899 159.159 439.329 163.299C438.429 163.649 437.869 164.559 438.019 165.519L438.439 168.219C438.589 169.159 439.459 169.799 440.389 169.649L441.049 169.549C442.329 169.359 443.519 170.259 443.679 171.549L445.299 184.519C445.449 185.759 444.599 186.889 443.379 187.089L436.079 188.249C434.859 188.439 433.699 187.639 433.459 186.429L430.859 173.549C430.589 172.229 431.529 171.069 432.849 170.809C433.739 170.619 434.349 169.769 434.199 168.859C434.119 168.299 434.019 167.669 433.909 166.969C433.749 165.929 432.579 165.309 431.299 165.569C430.499 165.739 429.629 165.909 428.989 166.009C425.839 166.509 422.349 166.789 418.489 166.789C417.779 166.789 417.099 166.779 416.419 166.759C415.299 166.719 414.379 167.619 414.339 168.729L413.719 186.519C413.659 188.189 412.569 189.439 410.589 189.439C408.809 189.439 407.489 188.269 407.669 186.309L408.309 167.849C408.349 166.819 407.599 165.949 406.589 165.769C405.329 165.539 404.119 165.279 402.959 164.989C401.769 164.679 400.639 165.369 400.409 166.579L399.999 168.769C399.839 169.639 400.409 170.469 401.269 170.629L401.879 170.749C403.059 170.969 403.829 172.129 403.569 173.309L400.969 185.189C400.719 186.319 399.629 187.039 398.489 186.839L391.729 185.599C390.599 185.389 389.839 184.329 389.999 183.189L391.709 171.099C391.879 169.859 393.059 169.129 394.309 169.309C395.139 169.429 395.929 168.859 396.089 168.019L396.729 164.619C396.899 163.689 396.389 162.779 395.529 162.379ZM418.489 80.5488C420.739 80.5488 422.569 78.7287 422.569 76.4688C422.569 74.2188 420.739 72.3988 418.489 72.3988C416.239 72.3988 414.409 74.2188 414.409 76.4688C414.409 78.7287 416.239 80.5488 418.489 80.5488Z" fill="#DEF1F8"/>
<path d="M391.398 107.658C392.328 92.3784 393.048 84.1984 400.508 84.4384C407.978 84.6784 425.068 84.9084 430.368 84.4284C435.668 83.9584 442.058 84.3585 443.258 88.4585C444.458 92.5485 445.798 106.888 446.028 112.998C446.258 119.108 429.028 121.098 414.408 121.308C404.658 121.448 396.988 116.898 391.398 107.658Z" fill="#BCE3F6"/>
<path d="M446.029 112.999C447.009 124.939 447.979 139.089 448.439 145.829L448.679 149.169C448.449 151.899 440.659 161.569 418.489 161.569C396.319 161.569 388.529 151.9 388.299 149.28L388.539 145.829C389.069 138.039 390.289 120.399 391.399 107.659C393.229 106.449 396.529 106.449 401.319 107.659C408.489 109.459 415.799 113.019 432.839 111.509C439.849 110.889 444.249 111.389 446.029 112.999Z" fill="#EC6469"/>
<path d="M411.199 172.529L411.679 159.139" stroke="#EC6469" stroke-width="3" stroke-linecap="round"/>
<path d="M327.148 404.419C362.358 403.369 388.158 381.749 402.288 350.489C418.418 314.829 421.798 273.819 423.088 235.179C423.868 211.829 423.488 188.449 422.778 165.109" stroke="#DEF1F8" stroke-width="6" stroke-linecap="round"/>
<path d="M422.539 158.439C423.679 200.839 424.469 246.699 419.419 286.039C414.979 320.709 405.559 360.249 378.519 384.689C364.339 397.509 346.109 403.86 327.129 404.43" stroke="#EC6469" stroke-width="3" stroke-linecap="round"/>
<path d="M388.299 149.28L388.539 145.83C388.609 144.77 388.699 143.51 388.799 142.12C388.009 153.23 405.109 156.37 421.649 152.03C437.379 147.9 434.409 135.33 432.659 111.53C432.719 111.52 432.779 111.52 432.839 111.51C439.849 110.89 444.249 111.39 446.029 113C447.009 124.94 447.979 139.09 448.439 145.83L448.679 149.17C448.449 151.9 440.659 161.57 418.489 161.57C396.319 161.57 388.529 151.9 388.299 149.28Z" fill="#E73555"/>
<path d="M399.849 141.27C411.749 142.63 424.169 142.52 437.009 141.25C437.549 141.2 437.959 140.74 437.959 140.2V131.03C437.959 130.46 437.519 130 436.959 129.97C424.609 129.37 412.269 129.37 399.919 129.97C399.359 130 398.919 130.46 398.919 131.03V140.21C398.919 140.75 399.319 141.2 399.849 141.27Z" fill="#F0FAFF"/>
<path d="M400.699 88.499C412.219 87.959 420.189 87.879 420.339 90.189C420.499 92.489 404.849 93.099 399.939 98.319C395.029 103.539 395.029 101.689 395.029 98.319C395.029 94.939 395.929 88.719 400.699 88.499Z" fill="#DEF1F8"/>
<path d="M439 199.408C434.13 197.698 429.26 195.978 424.39 194.268C423.63 194.008 422.79 193.738 422.04 194.038C418.54 195.468 421.55 199.818 423.22 201.348C424.69 202.688 427.12 204.468 428.37 206.018C428.46 206.128 428.66 206.348 428.63 206.488" fill="#EE9681"/>
<path d="M305.61 278.108C310.37 278.498 315.5 276.928 318.82 272.948C320.76 270.608 321.71 267.578 322.93 264.818C323.33 263.918 323.75 262.978 324.5 262.338C325.23 261.718 326.24 261.428 327.19 261.588C327.77 261.678 328.34 261.958 328.62 262.468C328.92 262.998 328.82 263.648 328.73 264.248C327.81 269.718 327.25 276.718 323.09 280.728C319.31 284.378 315.11 286.128 310.01 287.438" fill="#E76266"/>
<path d="M325.43 260.628C325.43 270.778 317.2 279.008 307.04 279.008C296.89 279.008 288.65 270.778 288.65 260.628C288.65 250.468 296.89 242.238 307.04 242.238C317.2 242.238 325.43 250.468 325.43 260.628Z" fill="#E73555"/>
<path d="M307.039 242.238C298.439 242.238 291.239 248.148 289.229 256.128C289.899 264.108 296.579 270.388 304.729 270.388C313.329 270.388 320.299 263.418 320.299 254.818C320.299 251.148 319.019 247.778 316.889 245.118C314.039 243.298 310.669 242.238 307.039 242.238Z" fill="#EC6469"/>
<path d="M216.55 283.02C203.79 283.02 195.42 292.15 203.06 300.38C209.68 307.5 237.16 308.469 256 308.469C274.83 308.469 300.57 308.72 317.1 304.4C333.62 300.07 333.36 286.07 321.66 284.8C313.85 283.95 278.82 283.36 216.55 283.02Z" fill="#EE4652"/>
<path d="M307.76 289.27C304.76 289.72 301.23 290.09 297.06 290.35C282.78 291.26 273.69 290.9 251.02 290.98C231.29 291.04 220.67 290.12 217.91 288.55C212.58 285.5 198.69 267.46 195.37 262.6C192.14 257.86 186.76 237.63 179.21 201.88L187.13 194.93C197.23 198.99 200.14 202.19 203.43 209.44C210.73 225.53 225.33 261.47 226.76 263.04C227.53 263.9 228.94 266.29 232.59 266.79C238.31 267.56 274.4 271.17 278.7 271.09C284.68 270.98 282.85 270.22 285.77 267.21C286.81 266.13 287.96 265.09 289.18 265.08C292.06 273.52 298.38 277.04 303.8 278.04" fill="#EE9681"/>
<path d="M181.21 192.879C188.25 193.709 198.01 196.959 202.43 203.469C205.38 207.819 211.75 222.159 221.56 246.499C216.25 251.299 207.86 254.169 196.38 255.099L181.21 192.879Z" fill="#2CA5C6"/>
<path d="M237.37 268.488L232.79 278.528L238.51 279.008L242.83 269.068L237.37 268.488Z" fill="#F0FAFF"/>
<path d="M307.76 289.27C311.48 288.6 316.49 286.64 319.8 281.01C323.12 275.38 325.09 267.53 323.2 264.48C320.86 260.72 319.94 264.01 318.76 266.36C317.58 268.7 313.95 279.99 299.97 276.92L307.76 289.27Z" fill="#EE9681"/>
<path d="M250.33 274.809C251.78 318.329 215.92 355.809 171.62 352.489" stroke="#DEF1F8" stroke-width="6" stroke-linecap="round"/>
<path d="M171.62 352.49C197.95 353.81 221.2 342.579 236.65 320.709C242.58 312.319 245.86 305.029 248.09 295.849C250.1 287.599 250.45 277.67 250.33 274.81L230.72 272.77" stroke="#EC6469" stroke-width="3" stroke-linecap="round"/>
<path d="M156.36 490.408V490.198C156.36 486.288 159.53 483.118 163.44 483.118C167.35 483.118 170.52 479.948 170.52 476.038V475.818C170.52 471.908 173.69 468.738 177.6 468.738H259.69C263.6 468.738 266.77 471.908 266.77 475.818V476.038C266.77 479.948 269.94 483.118 273.85 483.118C277.77 483.118 280.94 486.288 280.94 490.198V490.408C280.94 494.318 277.77 497.488 273.85 497.488C269.94 497.488 266.77 500.658 266.77 504.568V504.788C266.77 508.698 269.94 511.868 273.85 511.868C277.77 511.868 280.94 515.038 280.94 518.948V519.158C280.94 523.068 277.77 526.238 273.85 526.238C269.94 526.238 266.77 529.408 266.77 533.318V533.538C266.77 537.448 263.6 540.618 259.69 540.618H177.6C173.69 540.618 170.52 537.448 170.52 533.538V533.318C170.52 529.408 167.35 526.238 163.44 526.238C159.53 526.238 156.36 523.068 156.36 519.158V518.948C156.36 515.038 159.53 511.868 163.44 511.868C167.35 511.868 170.52 508.698 170.52 504.788V504.568C170.52 500.658 167.35 497.488 163.44 497.488C159.53 497.488 156.36 494.318 156.36 490.408Z" fill="#292669"/>
<path d="M273.85 511.868H163.44C167.35 511.868 170.52 508.698 170.52 504.788V504.568C170.52 500.658 167.35 497.488 163.44 497.488H273.85C269.94 497.488 266.77 500.658 266.77 504.568V504.788C266.77 508.698 269.94 511.868 273.85 511.868Z" fill="#1E1242"/>
<path d="M163.44 483.118C167.35 483.118 170.52 479.948 170.52 476.038V475.818C170.52 471.928 173.67 468.768 177.56 468.748H259.74C263.63 468.768 266.77 471.928 266.77 475.818V476.038C266.77 479.948 269.94 483.118 273.85 483.118C273.87 483.118 273.89 483.118 273.9 483.118H163.44Z" fill="#1E1242"/>
<path d="M266.77 533.318V533.538C266.77 537.448 263.6 540.618 259.69 540.618H177.6C173.69 540.618 170.52 537.448 170.52 533.538V533.318C170.52 529.408 167.35 526.238 163.44 526.238H273.85C269.94 526.238 266.77 529.408 266.77 533.318Z" fill="#1E1242"/>
<path d="M162.96 539.268H274.34C281.5 539.268 287.87 543.838 290.17 550.628C290.85 552.638 289.35 554.728 287.23 554.728H150.07C147.94 554.728 146.45 552.638 147.13 550.628C149.42 543.838 155.79 539.268 162.96 539.268Z" fill="#BCE3F6"/>
<path d="M161.28 549.098H249.66C252.37 549.098 254.58 546.898 254.58 544.178C254.58 541.468 252.37 539.268 249.66 539.268H161.28C158.56 539.268 156.36 541.468 156.36 544.178C156.36 546.898 158.56 549.098 161.28 549.098Z" fill="#DEF1F8"/>
<path d="M259.05 472.89C266.04 471.11 298.88 454.2 306.97 445.26L303.88 410.439H204.34L108.35 443.92L259.05 472.89Z" fill="#BCE3F6"/>
<path d="M107.23 437.029C107.23 450.929 105.75 465.559 109.85 469.319C113.94 473.079 144.74 478.809 176.76 478.809C208.77 478.809 257.66 477.999 261.57 470.889C264.17 466.159 264.8 448.369 263.44 417.529L107.23 437.029Z" fill="#DEF1F8"/>
<path d="M107.06 447.8C107.13 444.29 107.23 440.64 107.23 437.03L138.7 433.329L204.35 410.439H296.89L304.33 445.26C286.5 440.05 274.02 436.409 266.88 434.329C256.18 431.219 248.57 437.15 204.7 445.26C164.35 452.72 124.54 450.2 107.06 447.8Z" fill="#90C8EE"/>
<path d="M32.0195 214.989C40.4095 204.919 112.53 179.449 139.46 186.149C157.4 190.619 175.9 242.269 194.94 341.119C152.99 388.549 118.22 413.079 90.6295 414.719C90.6395 413.289 71.0995 346.709 32.0195 214.989Z" fill="#F9575C"/>
<path d="M36.0697 212.269C51.4297 207.859 67.4997 216.219 72.8497 231.269C90.1597 280.039 103.23 329.839 111.99 380.679C114.4 394.709 106.51 408.489 93.2497 413.689L90.6297 414.719C86.1797 416.469 81.1997 413.939 79.9697 409.309L30.5397 222.009C29.4297 217.799 31.8897 213.469 36.0697 212.269Z" fill="#EE4652"/>
<path d="M252.659 428.919C260.819 426.269 265.509 423.729 274.909 414.969C284.309 406.209 326.409 362.109 331.999 356.509C337.599 350.909 333.269 325.829 304.869 325.049C276.479 324.269 204.609 325.169 181.099 336.589C157.589 347.999 103.359 404.449 98.7194 414.209C95.6194 420.719 146.939 425.629 252.659 428.919Z" fill="#EE4652"/>
<path d="M98.7194 414.21C99.8894 411.75 104.219 406.31 110.419 399.37C135.919 388.95 160.749 387.7 186.739 385.82C215.999 383.71 248.429 382.3 255.839 395.26C261.429 405.05 264.049 415.79 263.739 423.96C260.219 426.17 256.909 427.54 252.659 428.92C146.939 425.63 95.6194 420.72 98.7194 414.21Z" fill="#F9575C"/>
<path d="M92.1297 437.479C89.3497 428.919 94.0296 415.479 104.12 408.879C114.2 402.269 133.93 396.759 174.07 393.549C214.21 390.339 236.08 389.959 245.19 396.119C254.31 402.269 256.14 416.759 257.06 420.989C257.98 425.209 255.22 428.419 249.49 430.249C243.75 432.089 213.27 440.539 178.18 443.339C143.08 446.139 117.32 445.629 104.62 443.359C96.6296 441.929 92.8797 439.789 92.1297 437.479Z" fill="#EE4652"/>
<path d="M359.21 478.388C372.16 483.838 403.34 468.198 417.83 461.678C432.15 455.248 457.3 442.288 461.38 436.468C465.46 430.648 469.08 411.668 455.26 398.888C441.44 386.108 392.92 356.498 355.33 355.558C317.75 354.608 267.06 388.978 262.69 398.888C258.32 408.798 257.78 415.468 259.21 422.908L359.21 478.388Z" fill="#F9575C"/>
<path d="M259.209 422.908C258.749 420.268 258.969 410.528 263.789 403.738C268.609 396.958 280.539 389.158 307.599 402.688C334.669 416.218 357.609 431.928 365.639 440.018C373.669 448.108 372.979 462.328 370.449 470.128C367.929 477.928 364.259 479.758 359.209 478.388C354.169 477.008 271.769 434.978 266.999 431.588C261.839 427.928 259.699 425.658 259.209 422.908Z" fill="#EE4652"/>
<path d="M442.54 398.019L430.37 387.369L411.05 403.169L422.29 412.199C427.31 411.429 431.9 409.359 436.06 405.999C440.21 402.639 442.37 399.979 442.54 398.019Z" fill="#EE9681"/>
<path d="M430.37 387.369L431.9 388.699C428.87 397.879 423.47 403.949 415.71 406.909L411.05 403.169L430.37 387.369Z" fill="#E76266"/>
<path d="M419.579 407.07C420.289 405.29 424.609 408.97 428.099 408.59C431.579 408.21 434.579 407.54 436.029 404.42C437.749 400.71 436.169 398.19 434.059 395.79C431.459 392.83 431.639 388.06 434.859 385.78C435.349 385.43 435.879 385.19 436.429 385.12C439.749 384.67 440.789 387.69 447.709 387.87C455.439 388.07 461.919 385.22 469.189 383.44C477.909 381.3 482.199 376.21 487.089 376.02C491.539 375.84 493.999 377.31 496.969 386.46C495.719 392.6 489.979 398.44 482.809 402.72C476.289 406.61 466.809 410.59 461.219 413.28C455.639 415.97 447.049 427.43 434.759 429.15C428.319 422.73 423.259 415.38 419.579 407.07Z" fill="#1E1242"/>
<path d="M232.53 302.299C290.06 299.409 321.58 297.959 327.08 297.959C335.32 297.959 340.1 299.549 346.17 305.049C350.23 308.709 378.29 336.149 430.37 387.369C427.48 395.179 420.82 401.539 410.41 406.459L311.45 331.379L211.52 333.969L232.53 302.299Z" fill="#1E1242"/>
<path d="M415.71 403.75L426.92 412.51C427.07 426.52 420.54 433.09 410.42 431.53L397.35 420.78L415.71 403.75Z" fill="#F8C6A3"/>
<path d="M415.71 403.75L416.94 404.71C414.82 413.5 410.37 420.57 403.6 425.92L397.35 420.78L415.71 403.75Z" fill="#EE9681"/>
<path d="M139.949 348.039C143.889 364.099 152.069 380.019 178.659 381.429C205.249 382.829 254.899 371.119 272.699 368.779C290.499 366.439 297.529 369.719 306.889 374.869C313.139 378.299 343.269 395.319 397.289 425.919C404.259 422.069 410.399 414.679 415.709 403.749C362.529 354.209 332.029 327.559 324.219 323.809C312.509 318.189 306.889 317.729 287.219 315.379C274.109 313.819 255.869 312.259 232.529 310.699L139.949 348.039Z" fill="#292669"/>
<path d="M407.159 428.989C407.509 427.109 412.459 429.849 415.809 428.789C419.149 427.729 421.959 426.489 422.759 423.139C423.719 419.169 421.669 417.009 419.129 415.069C415.999 412.689 415.229 407.969 417.929 405.099C418.349 404.659 418.819 404.319 419.349 404.139C422.509 403.049 424.129 405.809 430.939 404.619C438.559 403.289 444.359 399.209 451.129 396.029C459.249 392.219 462.459 386.379 467.209 385.219C471.539 384.169 474.249 385.129 478.959 393.509C478.949 399.779 474.469 406.629 468.289 412.239C462.669 417.339 454.149 423.119 449.209 426.859C444.259 430.599 438.099 443.519 426.399 447.629C418.809 442.619 412.399 436.399 407.159 428.989Z" fill="#292669"/>
<path d="M168.6 189.948C174.15 191.128 189.97 193.698 196.8 200.978C199.08 203.418 210.99 241.538 232.53 315.348C222.89 337.148 192.03 348.038 139.95 348.038L122.47 290.068L116.12 200.128L136.38 188.408C154.16 188.648 164.9 189.158 168.6 189.948Z" fill="#40BEDB"/>
<path d="M232.53 315.349C231.38 311.429 229.92 306.439 228.13 300.379C203.18 311.029 145.98 314.199 135.2 273.469C127.96 280.629 123.51 283.269 121.85 281.369L122.47 290.069L139.95 348.039C192.03 348.039 222.89 337.149 232.53 315.349Z" fill="#2CA5C6"/>
<path d="M130.13 155.8L130.69 162.45C130.91 164.99 133.18 166.86 135.72 166.59L135.33 153.93L130.13 155.8Z" fill="#2F256A"/>
<path d="M169.57 182.839C159.61 184.069 142.72 180.539 139.95 161.949" stroke="#EE9681" stroke-width="3" stroke-linecap="round"/>
<path d="M185.31 116.619C186.51 130.299 188.32 159.089 183.69 170.159C180.61 177.539 175.58 181.359 168.6 181.629V197.939C159.07 203.439 148.4 202.629 136.59 195.519L135.27 151.789C133 131.489 133.44 119.769 136.59 116.619C141.32 111.889 159.54 95.8794 185.31 116.619Z" fill="#F8C6A3"/>
<path d="M123.56 147.61C123.56 143.08 127.23 139.41 131.75 139.41C136.28 139.41 139.95 143.08 139.95 147.61C139.95 152.14 136.28 155.8 131.75 155.8C127.23 155.8 123.56 152.14 123.56 147.61Z" fill="#F8C6A3"/>
<path d="M134.36 140.609L134.77 145.939H139.78V135.269C139.78 135.209 139.81 135.149 139.86 135.119C140.42 134.769 143.75 132.489 143.93 128.049C144.13 123.209 142.85 115.509 146.5 115.109C150.16 114.709 160.63 123.809 171.5 122.719C182.37 121.629 187.11 115.899 189.09 112.149C191.07 108.389 190.77 103.849 189.09 103.849C187.41 103.849 182.96 105.129 180.59 105.719C182.24 103.089 183.23 100.779 183.56 98.8093C184.05 95.8393 181.88 96.4293 177.33 97.8193C172.79 99.1993 155.3 101.469 146.8 103.059C138.3 104.639 133.95 106.609 130.89 110.269C127.83 113.919 128.68 129.389 129.48 139.739C131.75 139.169 133.22 139.799 134.36 140.609Z" fill="#2F256A"/>
<path d="M156.939 142.108C156.939 140.798 157.999 139.738 159.319 139.738C160.629 139.738 161.699 140.798 161.699 142.108C161.699 143.428 160.629 144.488 159.319 144.488C157.999 144.488 156.939 143.428 156.939 142.108Z" fill="#2F256A"/>
<path d="M176.449 141.159C176.449 139.839 177.519 138.779 178.829 138.779C180.149 138.779 181.209 139.839 181.209 141.159C181.209 142.469 180.149 143.529 178.829 143.529C177.519 143.529 176.449 142.469 176.449 141.159Z" fill="#2F256A"/>
<path d="M151.319 135.98C155.279 134.21 159.539 133.61 163.709 133.7C162.179 132.17 159.919 131.64 156.939 132.13C153.959 132.61 152.079 133.9 151.319 135.98Z" fill="#2F256A"/>
<path d="M139.78 137.779C139.95 147.609 143.76 161.069 150.09 162.579C156.42 164.079 165.36 160.519 170.82 160.269C176.34 160.019 185.93 161.649 186.21 157.509C186.82 164.459 186.09 170.139 184.03 174.549C180.94 181.179 174.76 183.379 166.82 184.269C158.87 185.149 139.3 183.839 135.55 161.019L135.37 154.959L134.77 145.939L139.78 137.779Z" fill="#2F256A"/>
<path d="M169.79 169.879C165.46 169.779 161.35 168.479 157.63 166.609C158.06 169.429 159.76 171.119 162.73 171.689C165.93 172.289 168.28 171.689 169.79 169.879Z" fill="#EE9681"/>
<path d="M174.55 132.5C178.81 131.69 183.1 132.09 187.13 133.14C185.99 131.29 183.92 130.26 180.9 130.05C177.89 129.84 175.77 130.65 174.55 132.5Z" fill="#2F256A"/>
<path d="M170.94 133.699C173.16 149.219 174.23 157.339 174.14 158.089C174.06 158.829 172.53 159.559 169.56 160.269" stroke="#EE9681" stroke-width="3" stroke-linecap="round"/>
<path d="M135.75 431.12C124.89 431.12 111.62 430.85 95.5701 424.06C92.2501 422.66 90.1301 419.42 91.1501 415.96C92.1601 412.5 95.8501 410.35 99.2501 411.53C116.23 417.41 131.96 418.29 142.12 416.35C149.67 414.91 153.91 411.28 155.91 404.23C159.55 391.4 160.62 378.47 159.36 362.31C159.08 358.71 161.77 355.57 165.37 355.29C168.96 355.04 172.11 357.7 172.39 361.3C173.77 379.07 172.56 393.41 168.48 407.8C164.92 420.33 159.34 428 144.95 430.37C142.67 430.75 138.41 431.12 135.75 431.12Z" fill="#BCE3F6"/>
<path d="M159.36 362.31C159.61 365.47 159.76 368.47 159.83 371.41C163.8 371.52 168.14 371.62 172.88 371.69C172.81 368.34 172.67 364.91 172.39 361.3C172.38 361.19 172.35 361.09 172.33 360.98L159.43 360.84C159.35 361.32 159.32 361.81 159.36 362.31Z" fill="#90C8EE"/>
<path d="M127.53 354.459C128.19 358.829 130.42 362.599 136.37 363.969C142.86 365.459 156.61 366.269 176.31 366.129C195.65 365.999 206.85 364.599 213.21 363.589C217.45 362.909 219.83 360.009 220.33 354.889L127.53 354.459Z" fill="#DEF1F8"/>
<path d="M130.49 332.279C117.72 332.279 109.36 341.409 117 349.639C123.61 356.769 151.1 357.729 169.93 357.729C188.77 357.729 214.51 357.989 231.03 353.659C247.56 349.329 247.3 335.339 235.59 334.059C227.79 333.219 192.75 332.619 130.49 332.279Z" fill="#FE6061"/>
<path d="M127.49 332.479C119.2 335.239 116.17 339.738 134.06 343.188C149.78 346.218 227.13 348.119 243.55 339.409L127.49 332.479Z" fill="#EE4652"/>
<path d="M210.77 318.868C209.37 318.748 203.18 318.228 201.45 318.028C196.79 317.518 155.1 311.038 150.43 310.268C145.77 309.488 143.96 308.708 143.7 307.418C143.53 306.548 140.6 287.158 134.92 249.238L96.7402 261.748C103.36 299.788 107.28 320.968 108.48 325.278C110.3 331.758 113.4 335.638 116.88 336.678C120.35 337.708 137.81 341.768 163.71 341.828C181.45 341.868 192.39 340.538 203.79 342.138C207.83 342.708 210.03 345.008 216.37 346.518C221.35 347.708 227.32 346.468 232.33 345.958C238.54 345.308 244.35 344.878 250.37 346.848C254.03 348.038 257.71 349.098 261.13 346.608C262.02 345.958 262.82 345.028 262.86 343.928C262.92 341.788 260.71 338.628 259.53 336.958C257.94 334.728 256.02 332.758 254.07 330.858C250.39 327.248 246.57 324.708 241.59 323.308C238.07 322.328 215.43 319.288 210.77 318.868Z" fill="#F8C6A3"/>
<path d="M134.92 249.238L137.49 267.348C129.53 275.758 116.97 279.628 99.8402 278.958L96.7402 261.748L134.92 249.238Z" fill="#EE9681"/>
<path d="M116.12 200.129C107.87 204.259 96.5701 211.859 94.2401 227.399C92.6901 237.759 93.5201 253.269 96.7401 273.919C104.17 274.609 111.76 274.179 119.53 272.629C127.3 271.069 133.52 268.359 138.2 264.489C136.77 253.609 135.39 243.509 134.08 234.199C131.29 214.359 126.91 202.719 116.12 200.129Z" fill="#2CA5C6"/>
<path d="M393.779 73.0195H401.319C403.129 73.0195 404.589 74.4795 404.589 76.2795C404.589 78.0895 403.129 79.5495 401.319 79.5495H393.779" fill="#BCE3F6"/>
<path d="M591.799 487.229L601.779 512.239C601.289 519.589 598.359 523.669 592.969 524.479C587.589 525.289 582.229 520.189 576.919 509.179L570.149 495.629L591.799 487.229Z" fill="#EE9681"/>
<path d="M570.149 495.629L574.329 503.999C577.589 504.139 581.669 503.118 586.589 500.938C591.499 498.758 594.189 496.589 594.669 494.409L591.799 487.229L570.149 495.629Z" fill="#E76266"/>
<path d="M601.839 509.589C600.079 509.119 600.439 514.499 598.169 516.949C595.899 519.399 593.689 521.309 590.489 520.649C586.679 519.859 585.649 517.219 585.009 514.249C584.229 510.589 580.479 508.009 576.919 509.179C576.369 509.359 575.889 509.619 575.519 509.999C573.289 512.279 575.009 514.799 571.219 520.179C566.989 526.189 562.029 530.929 555.649 534.069C550.179 536.749 545.559 534.839 540.019 539.089C536.949 541.439 536.729 547.569 537.749 551.999C543.159 554.539 557.959 554.739 563.409 553.529C570.459 551.969 577.739 547.659 582.959 544.919C588.179 542.179 603.459 540.559 611.739 532.139C610.499 523.579 607.199 516.069 601.839 509.589Z" fill="#ADD9EA"/>
<path d="M588.68 228.548C573 319.928 565.47 367.988 566.1 372.728C566.74 377.478 576.26 416.288 594.67 489.168C589.02 495.348 577.46 500.818 570.15 499.268C537.98 434.358 521.18 395.168 519.76 381.688C517.82 363.158 517.82 311.398 519.76 226.418L588.68 228.548Z" fill="#2CA5C6"/>
<path d="M532.939 502.889L530.179 529.209C527.219 535.959 523.079 538.799 517.739 537.729C512.389 536.659 509.089 530.049 507.839 517.879L508.589 502.889H532.939Z" fill="#F8C6A3"/>
<path d="M532.939 502.889L531.999 512.409C524.289 515.479 516.349 515.069 508.169 511.179L508.589 502.889H532.939Z" fill="#EE9681"/>
<path d="M505.529 227.889C502.579 311.449 501.049 359.229 500.939 371.229C500.829 383.229 502.829 428.069 506.929 505.749C513.639 509.429 522.579 509.259 533.749 505.239C533.289 502.069 550.689 387.969 552.469 375.999C553.659 368.029 564.709 319.449 585.599 230.269L505.529 227.889Z" fill="#40BEDB"/>
<path d="M531.139 526.738C529.639 525.698 528.149 530.878 525.179 532.408C522.219 533.948 519.489 534.988 516.699 533.278C513.389 531.238 513.309 528.408 513.719 525.398C514.229 521.688 511.579 517.988 507.839 517.878C507.259 517.858 506.709 517.948 506.239 518.178C503.369 519.568 504.129 522.518 498.739 526.288C492.719 530.508 486.249 532.238 479.369 534.068C470.839 536.338 464.099 535.648 459.899 537.658C456.419 539.328 453.629 543.358 456.079 552.168C460.299 556.388 470.769 556.888 478.699 556.518C485.909 556.178 495.529 554.348 501.369 553.548C507.219 552.748 520.049 557.318 530.699 552.218C532.439 543.748 532.589 535.248 531.139 526.738Z" fill="#BCE3F6"/>
<path d="M582.509 113.009C582.779 106.849 579.239 101.139 573.579 98.7088C565.489 95.2488 554.829 92.3988 548.819 91.2188C539.799 89.4488 524.129 91.6788 515.669 95.0288C507.209 98.3788 505.829 102.169 500.009 112.619C494.889 121.829 491.539 127.929 490.709 137.499C489.949 146.319 492.909 154.649 499.589 162.479C501.449 171.329 502.449 177.819 502.599 181.959C502.699 184.789 494.929 205.529 493.959 211.099C492.829 217.549 472.489 283.289 473.309 329.379C486.999 342.029 524.979 346.339 553.599 344.029L558.959 297.409L566.739 340.789C581.619 337.949 593.859 333.389 599.519 327.679C600.519 269.149 592.959 222.289 576.839 187.089C571.519 175.489 577.889 147.519 580.559 137.119C581.269 134.359 581.699 131.529 581.819 128.679L582.509 113.009Z" fill="#40BEDB"/>
<path d="M580.559 137.118C580.889 135.808 581.159 134.488 581.359 133.158C581.149 133.618 553.939 193.548 541.739 201.378C533.569 206.628 518.159 208.098 495.529 205.788L492.399 217.308C511.099 225.198 529.409 228.578 547.309 227.458C564.859 226.368 579.909 251.288 581.369 293.978C582.619 330.488 573.429 338.418 570.749 339.958C583.789 337.098 594.379 332.868 599.519 327.678C600.519 269.148 592.959 222.288 576.839 187.088C571.519 175.488 577.889 147.518 580.559 137.118Z" fill="#40BEDB"/>
<path d="M552.789 244.699L583.539 243.229C586.399 268.409 586.559 281.859 584.049 283.599C578.019 287.739 562.589 287.889 556.039 285.839C552.929 284.859 551.849 271.149 552.789 244.699Z" fill="#40BEDB"/>
<path d="M584.05 283.589C584.94 282.979 585.38 280.369 585.53 276.769C583.57 283.029 573.37 283.129 563.86 282.829C556.68 282.599 554.54 270.119 552.62 261.959C552.08 270.819 553.5 285.029 556.04 285.839C562.59 287.889 578.02 287.739 584.05 283.589Z" fill="#40BEDB"/>
<path d="M552.869 96.3887C556.779 96.9287 558.809 98.2486 558.949 100.349C559.259 104.749 549.839 118.769 524.049 138.619C521.969 137.819 513.039 100.629 523.109 96.8687L552.869 96.3887Z" fill="#40BEDB"/>
<path d="M582.509 113.009C582.779 106.849 579.239 101.139 573.579 98.7088C565.489 95.2488 554.829 92.3988 548.819 91.2188C539.799 89.4488 524.129 91.6788 515.669 95.0288C507.209 98.3788 505.829 102.169 500.009 112.619C494.889 121.829 491.539 127.929 490.709 137.499C489.949 146.319 492.909 154.649 499.589 162.479C501.449 171.329 502.449 177.819 502.599 181.959C502.699 184.789 494.929 205.529 493.959 211.099C492.829 217.549 472.489 283.289 473.309 329.379C486.999 342.029 524.979 346.339 553.599 344.029L558.959 297.409L566.739 340.789C581.619 337.949 593.859 333.389 599.519 327.679C600.519 269.149 592.959 222.289 576.839 187.089C571.519 175.489 577.889 147.519 580.559 137.119C581.269 134.359 581.699 131.529 581.819 128.679L582.509 113.009Z" fill="#DEF1F8"/>
<path d="M580.559 137.118C580.889 135.808 581.159 134.488 581.359 133.158C581.149 133.618 553.939 193.548 541.739 201.378C533.569 206.628 518.159 208.098 495.529 205.788L492.399 217.308C511.099 225.198 529.409 228.578 547.309 227.458C564.859 226.368 579.909 251.288 581.369 293.978C582.619 330.488 573.429 338.418 570.749 339.958C583.789 337.098 594.379 332.868 599.519 327.678C600.519 269.148 592.959 222.288 576.839 187.088C571.519 175.488 577.889 147.518 580.559 137.118Z" fill="#BCE3F6"/>
<path d="M552.789 244.699L583.539 243.229C586.399 268.409 586.559 281.859 584.049 283.599C578.019 287.739 562.589 287.889 556.039 285.839C552.929 284.859 551.849 271.149 552.789 244.699Z" fill="#DEF1F8"/>
<path d="M584.05 283.589C584.94 282.979 585.38 280.369 585.53 276.769C583.57 283.029 573.37 283.129 563.86 282.829C556.68 282.599 554.54 270.119 552.62 261.959C552.08 270.819 553.5 285.029 556.04 285.839C562.59 287.889 578.02 287.739 584.05 283.589Z" fill="#BCE3F6"/>
<path d="M552.869 96.3887C556.779 96.9287 558.809 98.2486 558.949 100.349C559.259 104.749 549.839 118.769 524.049 138.619C521.969 137.819 513.039 100.629 523.109 96.8687L552.869 96.3887Z" fill="#40BEDB"/>
<path d="M546.379 146.879C535.889 172.959 530.439 186.359 530.029 187.089C529.409 188.179 526.899 188.329 522.449 187.629C518.009 186.929 486.829 179.849 478.349 176.859C474.139 175.379 468.489 173.429 466.459 168.599C464.429 163.769 462.609 160.539 460.429 155.599C458.019 150.149 458.309 143.909 456.179 143.999C453.559 144.119 449.239 147.989 450.019 155.009C450.369 158.089 450.609 160.509 450.779 162.249C450.959 164.109 449.449 165.649 447.589 165.559C445.509 165.459 442.639 165.239 439.359 164.709C433.499 163.769 425.299 162.239 414.759 160.099C410.609 160.599 410.279 162.479 413.769 165.729C418.419 170.049 425.739 170.599 428.709 174.969C431.669 179.329 437.979 183.769 452.389 189.609C466.809 195.459 479.409 200.499 502.799 208.229C526.199 215.969 535.329 215.759 538.779 215.869C542.229 215.979 547.089 211.569 550.669 206.269C553.059 202.739 560.229 188.679 572.189 164.079L546.379 146.879Z" fill="#F8C6A3"/>
<path d="M572.859 98.8086C582.709 100.719 588.779 110.569 587.859 124.439C587.239 133.679 582.009 151.789 572.159 178.749C565.609 177.939 559.129 176.129 552.709 173.319C546.289 170.499 541.429 166.979 538.119 162.749C545.309 143.939 550.349 130.629 553.249 122.829C559.419 106.209 563.039 98.9986 572.859 98.8086Z" fill="#DEF1F8"/>
<path d="M553.379 74.7182C557.309 74.0682 561.129 70.6082 564.859 60.9082C568.579 51.1982 575.969 26.6482 567.289 15.7782C557.849 3.93821 548.189 2.19819 533.609 6.43819V74.7182H553.379Z" fill="#2F256A"/>
<path d="M522.56 84.598C533.02 85.208 545.25 81.078 550.33 63.498" stroke="#EE9681" stroke-width="3" stroke-linecap="round"/>
<path d="M509.409 23.6286C506.049 35.4986 503.069 55.2886 508.629 70.8086C511.719 79.4186 517.739 83.5887 526.679 83.3387L526.799 98.7086C531.339 107.159 540.009 107.039 552.829 98.3387L554.039 46.7886C558.519 35.3486 559.289 28.0586 556.329 24.9386C551.899 20.2586 534.779 4.34863 509.409 23.6286Z" fill="#F8C6A3"/>
<path d="M564.85 52.9998C564.97 48.6398 561.54 45.0098 557.18 44.8898C552.82 44.7698 549.18 48.1998 549.06 52.5598C548.94 56.9198 552.38 60.5598 556.74 60.6798C561.1 60.7998 564.73 57.3598 564.85 52.9998Z" fill="#F8C6A3"/>
<path d="M520.12 41.5293C518.01 52.8193 516.98 58.8192 517.04 59.5392C517.1 60.2492 518.56 60.7092 521.42 60.9092" stroke="#EE9681" stroke-width="3" stroke-linecap="round"/>
<path d="M534.1 47.2395C534.14 45.9695 533.14 44.9196 531.87 44.8796C530.61 44.8496 529.55 45.8495 529.52 47.1095C529.48 48.3795 530.48 49.4295 531.75 49.4695C533.01 49.4995 534.07 48.5095 534.1 47.2395Z" fill="#2F256A"/>
<path d="M513.039 46.2493C513.069 44.9793 512.069 43.9293 510.809 43.8893C509.539 43.8593 508.489 44.8593 508.449 46.1193C508.419 47.3893 509.419 48.4393 510.679 48.4793C511.949 48.5093 512.999 47.5193 513.039 46.2493Z" fill="#2F256A"/>
<path d="M538.339 42.6897C535.329 41.2397 532.079 40.1497 528.879 40.1297C530.209 38.5897 532.019 38.0296 534.299 38.4696C536.589 38.9096 537.929 40.3097 538.339 42.6897Z" fill="#2F256A"/>
<path d="M515.43 39.3185C512.16 39.4785 508.84 40.0485 506.06 41.5285C506.49 39.5685 507.8 38.2385 509.98 37.5485C512.15 36.8685 513.97 37.4585 515.43 39.3185Z" fill="#2F256A"/>
<path d="M519.229 68.4685C523.389 68.8685 527.47 68.0985 531.24 66.7285C531 69.7085 529.21 71.3985 525.87 71.7985C522 72.2585 519.789 71.1485 519.229 68.4685Z" fill="#E76266"/>
<path d="M555.72 44.8795L554.23 54.0795C550.37 53.5795 548.88 52.3695 549.06 48.4795L549.61 43.8895C545.56 42.8695 542.11 40.9095 539.27 38.0195C534.32 32.9795 533.51 24.6195 536.86 12.9395C540.05 11.0195 545.26 12.7495 552.51 18.1095C563.39 26.1595 559.06 40.9295 555.72 44.8795Z" fill="#2F256A"/>
<path d="M535.859 17.6288C532.239 30.7588 522.599 36.8688 506.949 35.9388C506.099 41.3588 505.669 44.8488 505.639 46.4088C501.919 45.0888 498.959 41.2588 496.769 34.9288C493.329 25.0088 497.339 13.5388 505.319 7.16882C519.679 -4.31118 537.759 1.79883 541.739 8.42883L538.699 15.5488L535.859 17.6288Z" fill="#2F256A"/>
<path d="M527.909 117.488C523.759 114.808 521.759 105.088 523.109 96.868L528.279 94.668L552.869 96.388C554.379 96.798 555.209 97.638 555.359 98.918C555.649 101.288 542.579 114.408 527.909 117.488Z" fill="#F8C6A3"/>
</svg>
