<svg version="1.2" baseProfile="tiny-ps" xmlns="http://www.w3.org/2000/svg" viewBox="0 0 1500 1000" width="1500" height="1000">
	<title>5355379-ai</title>
	<style>
		tspan { white-space:pre }
		.shp0 { fill: #ccefef } 
		.shp1 { fill: #a7d2d0 } 
		.shp2 { fill: #7ba7fe } 
		.shp3 { fill: #0a4064 } 
		.shp4 { fill: #6077a1 } 
		.shp5 { fill: #ffffff } 
		.shp6 { fill: none;stroke: #ffffff;stroke-width: 2.478 } 
		.shp7 { fill: #203055 } 
		.shp8 { fill: #344981 } 
		.shp9 { fill: #263966 } 
		.shp10 { fill: #4969b0 } 
		.shp11 { fill: #6c91d7 } 
		.shp12 { fill: #c4313d } 
		.shp13 { opacity: 0.361;fill: #e38195 } 
		.shp14 { fill: #741c2c } 
		.shp15 { fill: #e38195 } 
		.shp16 { fill: #932534 } 
		.shp17 { opacity: 0.42;fill: #741c2c } 
		.shp18 { opacity: 0.49;fill: #ffffff } 
		.shp19 { fill: #87b3af } 
	</style>
	<g id="BACKGROUND">
		<g id="&lt;Group&gt;">
			<path id="&lt;Path&gt;" class="shp0" d="M1500 1000L0 1000L0 0L1500 0L1500 1000Z" />
		</g>
	</g>
	<g id="OBJECTS">
		<path id="&lt;Path&gt;" class="shp1" d="M142.37 890.59L1320.96 890.59C1452.7 723.19 1483.28 596.34 1412.71 510.03C1354.22 438.5 1257.97 458.08 1183.53 489.93C1138.31 509.28 1084.74 482.11 1082.86 439.49C1078.04 329.78 1038.78 175.19 858.7 158.17C708.73 143.99 642.02 216.01 612.44 286.65C596.93 323.67 544.14 337.45 506.16 314.6C477.33 297.26 440.84 287.45 396.43 297.54C323.46 314.11 312.22 402.01 316.5 476.33C318.82 516.66 273.04 546.16 226.97 534.68C182.83 523.68 132.09 524.59 89.65 561.44C23.64 618.77 41.21 728.49 142.37 890.59Z" />
		<g id="&lt;Group&gt;">
			<path id="&lt;Path&gt;" class="shp2" d="M1212.86 314.22C1280.33 305.6 1308.07 268.74 1296.06 203.61C1228.45 214.16 1200.72 251.03 1212.86 314.22Z" />
			<path id="&lt;Path&gt;" class="shp2" d="M1152.14 361.25C1208.45 323.09 1216.55 277.67 1176.43 224.99C1120.87 264.93 1112.78 310.35 1152.14 361.25Z" />
			<path id="&lt;Path&gt;" class="shp2" d="M1321.44 349.75C1275.95 400.32 1229.85 402.14 1183.15 355.19C1230.3 305.61 1276.4 303.8 1321.44 349.75Z" />
			<g id="&lt;Group&gt;">
				<g id="&lt;Group&gt;">
					<path id="&lt;Path&gt;" class="shp3" d="M1264.52 248.78C1252.95 264.19 1240.28 279.43 1227.63 294.21C1200.83 325.51 1172.51 355.74 1141.59 383.03C1124.09 398.48 1105.67 413.08 1085.65 425.15C1083.65 426.35 1085.47 429.48 1087.47 428.27C1124.11 406.19 1156.03 376.31 1185.69 345.73C1210.06 320.6 1233.12 294.16 1254.98 266.82C1259.26 261.47 1263.52 256.09 1267.64 250.61C1269.04 248.75 1265.9 246.94 1264.52 248.78Z" />
				</g>
			</g>
			<g id="&lt;Group&gt;">
				<g id="&lt;Group&gt;">
					<path id="&lt;Path&gt;" class="shp3" d="M1266.27 349.76C1255.79 350.21 1245.31 350.67 1234.83 351.13C1218.21 351.85 1201.59 352.58 1184.97 353.3C1181.12 353.47 1177.28 353.64 1173.43 353.8C1171.11 353.9 1171.1 357.52 1173.43 357.42C1183.91 356.97 1194.39 356.51 1204.87 356.05C1221.49 355.33 1238.11 354.6 1254.73 353.88C1258.58 353.71 1262.42 353.54 1266.27 353.38C1268.59 353.28 1268.61 349.66 1266.27 349.76Z" />
				</g>
			</g>
			<g id="&lt;Group&gt;">
				<g id="&lt;Group&gt;">
					<path id="&lt;Path&gt;" class="shp3" d="M1168.41 279.3C1166.38 289.86 1164.26 300.39 1162.09 310.91C1158.39 328.8 1154.66 346.72 1150 364.38C1149.08 367.86 1148.13 371.33 1147.02 374.74C1146.34 376.8 1145.82 378.72 1144.65 380.46C1143.35 382.4 1146.49 384.21 1147.78 382.28C1150.37 378.4 1151.4 373.02 1152.61 368.6C1154.88 360.4 1156.81 352.1 1158.7 343.8C1162.61 326.57 1166.18 309.25 1169.62 291.91C1170.39 288.03 1171.15 284.15 1171.9 280.26C1172.33 277.99 1168.85 277.01 1168.41 279.3Z" />
				</g>
			</g>
		</g>
		<g id="&lt;Group&gt;">
			<path id="&lt;Path&gt;" class="shp4" d="M1392.97 894.97C1394.6 887.11 1395.45 878.96 1395.45 870.61C1395.45 804.36 1341.75 750.66 1275.5 750.66C1209.25 750.66 1155.54 804.36 1155.54 870.61C1155.54 878.96 1156.4 887.11 1158.02 894.97L1392.97 894.97Z" />
			<g id="&lt;Group&gt;">
				<path id="&lt;Path&gt;" class="shp4" d="M598.91 894.97C600.53 887.11 601.39 878.96 601.39 870.61C601.39 804.36 547.68 750.66 481.43 750.66C415.18 750.66 361.48 804.36 361.48 870.61C361.48 878.96 362.33 887.11 363.95 894.97L598.91 894.97Z" />
				<path id="&lt;Path&gt;" class="shp4" d="M370.52 894.97C371.59 889.8 372.15 884.44 372.15 878.95C372.15 835.37 336.83 800.04 293.25 800.04C249.67 800.04 214.34 835.37 214.34 878.95C214.34 884.44 214.91 889.8 215.97 894.97L370.52 894.97Z" />
				<path id="&lt;Path&gt;" class="shp4" d="M237.39 894.97C238.1 891.49 238.48 887.88 238.48 884.19C238.48 854.85 214.7 831.07 185.37 831.07C156.04 831.07 132.26 854.85 132.26 884.19C132.26 887.88 132.64 891.49 133.36 894.97L237.39 894.97Z" />
			</g>
		</g>
		<path id="&lt;Path&gt;" class="shp4" d="M1203.52 750.66C1203.52 772.61 1221.32 790.41 1243.28 790.41C1265.23 790.41 1283.03 772.61 1283.03 750.66C1283.03 728.7 1265.23 710.9 1243.28 710.9C1221.32 710.9 1203.52 728.7 1203.52 750.66Z" />
		<g id="&lt;Group&gt;">
			<g id="&lt;Group&gt;">
				<path id="&lt;Path&gt;" class="shp0" d="M252.18 616.6C252.18 629.73 262.83 640.37 275.96 640.37C289.08 640.37 299.73 629.73 299.73 616.6C299.73 603.48 289.08 592.83 275.96 592.83C262.83 592.83 252.18 603.48 252.18 616.6Z" />
				<path id="&lt;Path&gt;" class="shp0" d="M240.3 574.78C240.3 581.34 245.62 586.66 252.18 586.66C258.75 586.66 264.07 581.34 264.07 574.78C264.07 568.21 258.75 562.89 252.18 562.89C245.62 562.89 240.3 568.21 240.3 574.78Z" />
			</g>
		</g>
		<path id="&lt;Path&gt;" class="shp1" d="M1121.33 194.78C1121.33 207.91 1131.97 218.55 1145.1 218.55C1158.23 218.55 1168.87 207.91 1168.87 194.78C1168.87 181.65 1158.23 171.01 1145.1 171.01C1131.97 171.01 1121.33 181.65 1121.33 194.78Z" />
		<g id="&lt;Group&gt;">
			<g id="&lt;Group&gt;">
				<g id="&lt;Group&gt;">
					<path id="&lt;Path&gt;" class="shp5" d="M715.18 347.16L733.27 347.16L733.27 283.24L715.18 283.24L715.18 347.16Z" />
					<path id="&lt;Path&gt;" class="shp5" d="M692.26 306.15L692.26 324.25L756.19 324.25L756.19 306.15L692.26 306.15Z" />
				</g>
			</g>
			<g id="&lt;Group&gt;">
				<g id="&lt;Group&gt;">
					<path id="&lt;Path&gt;" class="shp5" d="M710.72 265.08L715.47 265.08L715.47 248.33L710.72 248.33L710.72 265.08Z" />
					<path id="&lt;Path&gt;" class="shp5" d="M704.72 254.33L704.72 259.07L721.47 259.07L721.47 254.33L704.72 254.33Z" />
				</g>
			</g>
			<path id="&lt;Path&gt;" class="shp6" d="M772.96 280.07C772.96 289.67 780.75 297.45 790.35 297.45C799.95 297.45 807.74 289.67 807.74 280.07C807.74 270.46 799.95 262.68 790.35 262.68C780.75 262.68 772.96 270.46 772.96 280.07Z" />
			<path id="&lt;Path&gt;" class="shp5" d="M737 237.97C737 243.69 741.64 248.33 747.36 248.33C753.08 248.33 757.72 243.69 757.72 237.97C757.72 232.24 753.08 227.6 747.36 227.6C741.64 227.6 737 232.24 737 237.97Z" />
		</g>
		<g id="&lt;Group&gt;">
			<g id="&lt;Group&gt;">
				<g id="&lt;Group&gt;">
					<path id="&lt;Path&gt;" class="shp5" d="M1208.45 586.22L1226.55 586.22L1226.55 522.3L1208.45 522.3L1208.45 586.22Z" />
					<path id="&lt;Path&gt;" class="shp5" d="M1185.54 545.21L1185.54 563.31L1249.47 563.31L1249.47 545.21L1185.54 545.21Z" />
				</g>
			</g>
			<g id="&lt;Group&gt;">
				<g id="&lt;Group&gt;">
					<path id="&lt;Path&gt;" class="shp5" d="M1204 504.13L1208.74 504.13L1208.74 487.38L1204 487.38L1204 504.13Z" />
					<path id="&lt;Path&gt;" class="shp5" d="M1198 493.39L1198 498.13L1214.75 498.13L1214.75 493.39L1198 493.39Z" />
				</g>
			</g>
			<path id="&lt;Path&gt;" class="shp6" d="M1266.24 519.12C1266.24 528.73 1274.03 536.51 1283.63 536.51C1293.23 536.51 1301.01 528.73 1301.01 519.12C1301.01 509.52 1293.23 501.74 1283.63 501.74C1274.03 501.74 1266.24 509.52 1266.24 519.12Z" />
			<path id="&lt;Path&gt;" class="shp5" d="M1230.27 477.02C1230.27 482.75 1234.91 487.38 1240.64 487.38C1246.36 487.38 1251 482.75 1251 477.02C1251 471.3 1246.36 466.66 1240.64 466.66C1234.91 466.66 1230.27 471.3 1230.27 477.02Z" />
		</g>
		<g id="&lt;Group&gt;">
			<g id="&lt;Group&gt;">
				<g id="&lt;Group&gt;">
					<path id="&lt;Path&gt;" class="shp5" d="M489.31 624.19L497.5 640.32L554.5 611.38L546.3 595.24L489.31 624.19Z" />
					<path id="&lt;Path&gt;" class="shp5" d="M515.5 585.19L499.36 593.38L528.31 650.38L544.44 642.18L515.5 585.19Z" />
				</g>
			</g>
			<path id="&lt;Path&gt;" class="shp6" d="M546.8 555.99C538.24 560.33 534.82 570.8 539.17 579.36C543.52 587.92 553.99 591.34 562.55 586.99C571.11 582.64 574.52 572.18 570.18 563.62C565.83 555.05 555.36 551.64 546.8 555.99Z" />
			<path id="&lt;Path&gt;" class="shp6" d="M525.77 685.2C517.21 689.54 513.79 700.01 518.14 708.57C522.49 717.13 532.95 720.55 541.51 716.2C550.07 711.85 553.49 701.39 549.14 692.83C544.79 684.26 534.33 680.85 525.77 685.2Z" />
			<path id="&lt;Path&gt;" class="shp5" d="M492.34 663.31C487.24 665.9 485.2 672.14 487.79 677.24C490.38 682.34 496.62 684.38 501.72 681.79C506.83 679.2 508.86 672.96 506.27 667.86C503.68 662.75 497.44 660.72 492.34 663.31Z" />
		</g>
		<g id="&lt;Group&gt;">
			<g id="&lt;Group&gt;">
				<path id="&lt;Path&gt;" class="shp7" d="M1313.91 890.58L852.61 890.58L852.61 646.01C852.61 629.47 866.01 616.07 882.54 616.07L1283.97 616.07C1300.51 616.07 1313.91 629.47 1313.91 646.01L1313.91 890.58Z" />
				<path id="&lt;Path&gt;" class="shp8" d="M1274.72 890.58L813.42 890.58L813.42 646.01C813.42 629.47 826.82 616.07 843.35 616.07L1244.78 616.07C1261.32 616.07 1274.72 629.47 1274.72 646.01L1274.72 890.58Z" />
				<path id="&lt;Path&gt;" class="shp9" d="M1244.78 616.07L843.35 616.07C826.82 616.07 813.42 629.47 813.42 646.01L813.42 803.29C848.98 817.05 886.2 826.01 923.22 829.53C1041.51 840.43 1179.54 842.86 1274.72 765.3L1274.72 646.01C1274.72 629.47 1261.32 616.07 1244.78 616.07Z" />
				<path id="&lt;Path&gt;" class="shp7" d="M989.84 622.73L970.28 622.73L970.28 560.12L989.84 560.12L989.84 622.73Z" />
				<path id="&lt;Path&gt;" class="shp7" d="M1155.74 622.73L1136.17 622.73L1136.17 560.12L1155.74 560.12L1155.74 622.73Z" />
				<path id="&lt;Path&gt;" class="shp7" d="M970.28 579.69L970.28 560.12L1155.74 560.12L1155.74 579.69L970.28 579.69Z" />
				<path id="&lt;Path&gt;" class="shp10" d="M1274.72 759.1L1274.72 646.01C1274.72 629.47 1261.32 616.07 1244.79 616.07L843.35 616.07C826.82 616.07 813.42 629.47 813.42 646.01L813.42 759.1L1274.72 759.1Z" />
				<path id="&lt;Path&gt;" class="shp7" d="M1081.43 777.49L1006.7 777.49C1001.41 777.49 997.12 773.2 997.12 767.91L997.12 750.3C997.12 745.01 1001.41 740.72 1006.7 740.72L1081.43 740.72C1086.73 740.72 1091.02 745.01 1091.02 750.3L1091.02 767.91C1091.02 773.2 1086.73 777.49 1081.43 777.49Z" />
				<path id="&lt;Path&gt;" class="shp11" d="M1273.68 638.31C1270.28 625.52 1258.65 616.07 1244.79 616.07L843.35 616.07C829.48 616.07 817.85 625.52 814.45 638.31L1273.68 638.31Z" />
				<path id="&lt;Path&gt;" class="shp4" d="M970.28 564.84L970.28 560.12L1155.74 560.12L1155.74 564.84L970.28 564.84Z" />
			</g>
			<path id="&lt;Path&gt;" class="shp11" d="M1211.09 759.1L1165.73 759.1L1165.73 616.07L1211.09 616.07L1211.09 759.1Z" />
			<path id="&lt;Path&gt;" class="shp11" d="M925.13 759.1L879.78 759.1L879.78 616.07L925.13 616.07L925.13 759.1Z" />
			<g id="&lt;Group&gt;">
				<path id="&lt;Path&gt;" class="shp5" d="M1035.56 729.33L1052.57 729.33L1052.57 657.22L1035.56 657.22L1035.56 729.33Z" />
				<path id="&lt;Path&gt;" class="shp5" d="M1008.02 684.77L1008.02 701.78L1080.12 701.78L1080.12 684.77L1008.02 684.77Z" />
			</g>
		</g>
		<g id="&lt;Group&gt;">
		</g>
		<g id="&lt;Group&gt;">
			<g id="&lt;Group&gt;">
				<path id="&lt;Path&gt;" class="shp12" d="M921.75 686.52C921.75 777.95 847.63 852.08 756.2 852.08C664.76 852.08 590.64 777.95 590.64 686.52C590.64 625.56 645.82 515.88 756.2 357.47C866.57 515.88 921.75 625.56 921.75 686.52Z" />
				<path id="&lt;Path&gt;" class="shp13" d="M737.47 689.1C766.68 673.64 792.45 651.3 809.63 620.37C833.6 578.74 841.81 528.78 835.64 482.03C808.81 436.5 782.33 394.98 756.2 357.47C645.82 515.88 590.64 625.56 590.64 686.52C590.64 692.4 590.95 698.2 591.55 703.92C595.51 705.32 599.47 706.68 603.44 708C646.4 720.03 694.51 711.44 737.47 689.1Z" />
				<path id="&lt;Path&gt;" class="shp14" d="M906.75 622.96C929.57 741.19 854.01 807.35 779.37 825.63C735.45 837.14 652.55 808.18 620.43 781.22C650.36 824.04 699.99 852.08 756.2 852.08C847.63 852.08 921.75 777.95 921.75 686.52C921.75 669.55 916.03 647.54 906.75 622.96Z" />
				<path id="&lt;Path&gt;" class="shp15" d="M702.18 451.74C693.25 469.25 695.96 488.52 708.23 494.77C720.49 501.02 737.67 491.89 746.6 474.38C755.53 456.86 752.82 437.59 740.55 431.34C728.29 425.09 711.11 434.22 702.18 451.74Z" />
				<path id="&lt;Path&gt;" class="shp15" d="M680.24 520.21C675.32 528.72 676.17 538.41 682.13 541.86C688.1 545.3 696.91 541.19 701.83 532.67C706.74 524.16 705.9 514.47 699.93 511.03C693.97 507.58 685.16 511.7 680.24 520.21Z" />
				<path id="&lt;Path&gt;" class="shp15" d="M756.2 357.47C690.75 453.31 645.58 529.9 620.7 587.24C698.33 496.68 743.5 420.09 756.2 357.47Z" />
			</g>
			<g id="&lt;Group&gt;">
				<g id="&lt;Group&gt;">
					<path id="&lt;Path&gt;" class="shp5" d="M885.3 730.83C865.05 730.83 842.72 726.48 818.4 717.77L825.82 697.06C874.62 714.54 913.28 712.44 940.74 690.83C1008.78 637.28 993.08 482.61 992.92 481.05L1014.79 478.71C1015.52 485.56 1031.85 647.13 954.34 708.12C935.11 723.25 912.02 730.83 885.3 730.83Z" />
				</g>
				<g id="&lt;Group&gt;">
					<path id="&lt;Path&gt;" class="shp16" d="M885.22 723.81C865.79 723.81 844.27 719.6 820.76 711.18L823.46 703.65C874.67 721.99 915.58 719.53 945.06 696.34C1016.08 640.46 1000.05 481.9 999.88 480.31L1007.83 479.46C1008.55 486.15 1024.51 643.99 950.01 702.62C932.07 716.74 910.4 723.8 885.22 723.81Z" />
				</g>
			</g>
			<g id="&lt;Group&gt;">
				<path id="&lt;Path&gt;" class="shp5" d="M903.85 518.23L1120.08 518.23C1138.53 518.23 1153.49 503.27 1153.49 484.82L1153.49 160.48C1153.49 142.03 1138.53 127.07 1120.08 127.07L903.85 127.07C885.4 127.07 870.44 142.03 870.44 160.48L870.44 484.82C870.44 503.27 885.4 518.23 903.85 518.23Z" />
				<path id="&lt;Path&gt;" class="shp0" d="M913.55 506.69L1110.38 506.69C1127.5 506.69 1141.37 492.81 1141.37 475.7L1141.37 169.6C1141.37 152.49 1127.5 138.61 1110.38 138.61L913.55 138.61C896.43 138.61 882.56 152.49 882.56 169.6L882.56 475.7C882.56 492.81 896.43 506.69 913.55 506.69Z" />
				<path id="&lt;Path&gt;" class="shp1" d="M1110.38 138.61L913.55 138.61C896.43 138.61 882.56 152.49 882.56 169.6L882.56 173.44C904.19 124.68 1121.33 140.61 1140.39 161.99C1136.99 148.56 1124.86 138.61 1110.38 138.61Z" />
				<path id="&lt;Path&gt;" class="shp12" d="M882.56 304.24L882.56 475.7C882.56 492.81 896.43 506.69 913.55 506.69L1110.38 506.69C1127.5 506.69 1141.37 492.81 1141.37 475.7L1141.37 262.3C1120.49 277.81 1094.15 288.88 1072.97 294.76C1010.78 309.81 945.77 313.11 882.56 304.24Z" />
				<path id="&lt;Path&gt;" class="shp17" d="M882.56 449.58L882.56 475.7C882.56 492.81 896.43 506.69 913.55 506.69L1110.38 506.69C1127.5 506.69 1141.37 492.81 1141.37 475.7L1141.37 366.67C1105.69 466.38 904.46 456.4 882.56 449.58Z" />
				<path id="&lt;Path&gt;" class="shp14" d="M882.56 304.24C958.06 261.22 1044.33 247.23 1141.37 262.3C1099.86 320.43 1013.59 334.41 882.56 304.24Z" />
				<path id="&lt;Path&gt;" class="shp5" d="M907.98 418.49L989.12 418.49C995.38 418.49 1000.46 413.42 1000.46 407.15L1000.46 369.35C1000.46 363.09 995.38 358.01 989.12 358.01L907.98 358.01C901.71 358.01 896.64 363.09 896.64 369.35L896.64 407.15C896.64 413.42 901.71 418.49 907.98 418.49Z" />
				<path id="&lt;Path&gt;" class="shp5" d="M898.8 428.16L998.3 428.16C999.49 428.16 1000.46 427.19 1000.46 425.99C1000.46 424.8 999.49 423.83 998.3 423.83L898.8 423.83C897.61 423.83 896.64 424.8 896.64 425.99C896.64 427.19 897.61 428.16 898.8 428.16Z" />
				<path id="&lt;Compound Path&gt;" fill-rule="evenodd" class="shp5" d="M1069.79 134.15L954.14 134.15C954.14 109.52 974.1 89.56 998.73 89.56L1025.19 89.56C1049.82 89.56 1069.79 109.52 1069.79 134.15ZM1035.58 108.93C1035.58 104.59 1032.07 101.08 1027.74 101.08L996.18 101.08C991.85 101.08 988.34 104.59 988.34 108.93C988.34 113.26 991.85 116.77 996.18 116.77L1027.74 116.77C1032.07 116.77 1035.58 113.26 1035.58 108.93Z" />
				<path id="&lt;Path&gt;" class="shp18" d="M972 366.25C1030.5 311.53 1039.14 219.41 1038.25 138.61L913.55 138.61C896.43 138.61 882.56 152.49 882.56 169.6L882.56 400C915 401.32 946.24 392.01 972 366.25Z" />
			</g>
			<g id="&lt;Group&gt;">
				<path id="&lt;Path&gt;" class="shp5" d="M673.95 689.13C673.95 734.55 710.77 771.37 756.2 771.37C801.62 771.37 838.44 734.55 838.44 689.13C838.44 643.7 801.62 606.88 756.2 606.88C710.77 606.88 673.95 643.7 673.95 689.13Z" />
				<g id="&lt;Group&gt;">
					<path id="&lt;Path&gt;" class="shp12" d="M744.75 733.71L767.64 733.71L767.64 652.85L744.75 652.85L744.75 733.71Z" />
					<path id="&lt;Path&gt;" class="shp12" d="M715.77 681.83L715.77 704.72L796.63 704.72L796.63 681.83L715.77 681.83Z" />
				</g>
			</g>
		</g>
		<g id="&lt;Group&gt;">
			<path id="&lt;Path&gt;" class="shp2" d="M1334.22 766.09C1340.5 698.36 1376.39 669.37 1441.89 679.12C1433.68 747.05 1397.79 776.04 1334.22 766.09Z" />
			<path id="&lt;Path&gt;" class="shp2" d="M1289.31 828.39C1325.5 770.8 1370.61 761.14 1424.65 799.42C1386.65 856.32 1341.54 865.98 1289.31 828.39Z" />
			<path id="&lt;Path&gt;" class="shp2" d="M1294.96 658.8C1245.99 706.01 1245.77 752.14 1294.29 797.2C1342.22 748.36 1342.44 702.23 1294.96 658.8Z" />
			<g id="&lt;Group&gt;">
				<g id="&lt;Group&gt;">
					<path id="&lt;Path&gt;" class="shp3" d="M1395.59 709.4C1380.29 721.73 1365.58 734.85 1351.1 748.13C1320.57 776.15 1291.17 805.67 1264.85 837.72C1249.99 855.81 1235.99 874.79 1224.59 895.28C1223.46 897.32 1226.58 899.14 1227.71 897.11C1248.38 859.98 1276.93 827.32 1306.26 796.85C1330.45 771.71 1355.99 747.84 1382.45 725.11C1387.63 720.67 1392.83 716.24 1398.15 711.95C1399.96 710.49 1397.38 707.95 1395.59 709.4Z" />
				</g>
			</g>
			<g id="&lt;Group&gt;">
				<g id="&lt;Group&gt;">
					<path id="&lt;Path&gt;" class="shp3" d="M1293.24 713.99C1293.15 724.48 1293.05 734.97 1292.96 745.46C1292.81 762.1 1292.65 778.73 1292.5 795.37C1292.47 799.22 1292.43 803.07 1292.4 806.92C1292.38 809.25 1296 809.25 1296.02 806.92C1296.11 796.43 1296.21 785.94 1296.3 775.45C1296.45 758.82 1296.6 742.19 1296.75 725.55C1296.79 721.7 1296.82 717.85 1296.86 713.99C1296.88 711.67 1293.26 711.66 1293.24 713.99Z" />
				</g>
			</g>
			<g id="&lt;Group&gt;">
				<g id="&lt;Group&gt;">
					<path id="&lt;Path&gt;" class="shp3" d="M1369.63 805.84C1358.99 808.26 1348.37 810.79 1337.77 813.36C1319.99 817.68 1302.16 822.04 1284.64 827.35C1281.22 828.38 1277.8 829.45 1274.45 830.7C1272.45 831.45 1270.25 832.18 1268.49 833.45C1266.62 834.79 1268.43 837.93 1270.32 836.57C1274 833.92 1279.23 832.81 1283.52 831.47C1291.63 828.95 1299.83 826.74 1308.04 824.58C1325.02 820.11 1342.1 815.98 1359.2 811.97C1362.99 811.08 1366.79 810.19 1370.59 809.33C1372.86 808.81 1371.9 805.32 1369.63 805.84Z" />
				</g>
			</g>
		</g>
		<g id="&lt;Group&gt;">
			<path id="&lt;Path&gt;" class="shp2" d="M238.01 744.8C248.88 677.66 221.4 640.61 155.54 633.65C146.48 701.47 173.97 738.52 238.01 744.8Z" />
			<path id="&lt;Path&gt;" class="shp2" d="M265.89 816.37C245.27 751.55 204.01 730.9 142.12 754.43C164.65 819.03 205.91 839.68 265.89 816.37Z" />
			<path id="&lt;Path&gt;" class="shp2" d="M302.88 650.76C338.47 708.73 327.14 753.45 268.87 784.92C234.71 725.64 246.04 680.92 302.88 650.76Z" />
			<g id="&lt;Group&gt;">
				<g id="&lt;Group&gt;">
					<path id="&lt;Path&gt;" class="shp3" d="M189.67 676.38C201.28 692.01 212.14 708.22 222.73 724.54C245.14 759.07 266.08 794.74 283.51 832.06C293.49 853.43 302.36 875.45 308.31 898.3C308.9 900.55 312.39 899.6 311.8 897.34C301.08 856.16 281.61 817.28 260.84 780.36C243.62 749.75 224.76 720.04 204.69 691.23C200.79 685.63 196.86 680.04 192.79 674.56C191.42 672.71 188.28 674.51 189.67 676.38Z" />
				</g>
			</g>
			<g id="&lt;Group&gt;">
				<g id="&lt;Group&gt;">
					<path id="&lt;Path&gt;" class="shp3" d="M287.23 703.7C284.7 713.87 282.16 724.05 279.63 734.23C275.61 750.38 271.59 766.52 267.57 782.66C266.64 786.4 265.71 790.14 264.78 793.88C264.21 796.14 267.7 797.1 268.26 794.84C270.8 784.66 273.33 774.48 275.87 764.3C279.89 748.16 283.91 732.01 287.93 715.87C288.86 712.13 289.79 708.4 290.72 704.66C291.28 702.4 287.79 701.43 287.23 703.7Z" />
				</g>
			</g>
			<g id="&lt;Group&gt;">
				<g id="&lt;Group&gt;">
					<path id="&lt;Path&gt;" class="shp3" d="M191.96 777.55C201.51 782.49 211.01 787.51 220.48 792.58C236.59 801.2 252.71 809.86 268.33 819.33C271.4 821.2 274.46 823.09 277.41 825.13C279.11 826.3 280.89 827.44 282.22 829.04C283.71 830.83 286.26 828.26 284.78 826.48C281.8 822.9 276.91 820.39 273.03 817.97C265.8 813.48 258.4 809.27 250.98 805.11C235.56 796.47 219.96 788.13 204.31 779.92C200.81 778.08 197.3 776.24 193.79 774.43C191.72 773.36 189.89 776.48 191.96 777.55Z" />
				</g>
			</g>
		</g>
		<path id="&lt;Path&gt;" class="shp19" d="M78.64 910.44L1421.36 910.44L1421.36 890.59L78.64 890.59L78.64 910.44Z" />
	</g>
</svg>